<svg width="349" height="349" viewBox="0 0 349 349" fill="none" xmlns="http://www.w3.org/2000/svg">
<path d="M264.361 298.556C210.748 328.253 123.824 328.254 70.2124 298.556C16.5998 268.858 16.5998 220.708 70.2124 191.01C123.825 161.311 210.749 161.311 264.362 191.009C317.974 220.707 317.974 268.858 264.361 298.556Z" fill="#F5F5F5"/>
<path d="M141.326 258.737L186.499 284.632C187.335 285.111 188.69 285.109 189.524 284.627L282.902 230.716C283.737 230.234 283.736 229.454 282.9 228.973L234.77 201.316C233.935 200.836 232.592 200.855 231.77 201.36L141.298 256.955C140.478 257.459 140.49 258.257 141.326 258.737Z" fill="#E0E0E0"/>
<path d="M95.7711 271.53L47.7571 243.811C46.9223 243.329 46.9209 242.545 47.7543 242.061L95.5938 214.246C96.4272 213.761 97.7786 213.759 98.6134 214.241L146.806 242.064C147.641 242.546 147.641 243.328 146.806 243.809L98.7928 271.53C97.9587 272.012 96.6059 272.012 95.7711 271.53Z" fill="#E0E0E0"/>
<path d="M240.554 290.786C230.936 296.513 215.342 296.513 205.724 290.786C196.105 285.061 196.105 275.776 205.724 270.049C215.342 264.324 230.936 264.324 240.554 270.049C250.172 275.776 250.172 285.06 240.554 290.786Z" fill="#E0E0E0"/>
<path d="M275.277 273.971C265.749 279.643 250.301 279.643 240.774 273.971C231.246 268.299 231.246 259.102 240.774 253.429C250.301 247.758 265.749 247.758 275.277 253.429C284.804 259.103 284.804 268.299 275.277 273.971Z" fill="#E0E0E0"/>
<path d="M51.0971 224.691C51.0238 220.486 47.8304 211.83 43.3723 206.447C38.9142 201.063 31.9844 197.191 27.1403 198.943C22.6291 200.575 23.2245 206.52 28.7995 210.37C34.3744 214.219 42.7385 219.031 45.2786 225.809L50.5052 234.089L51.0971 224.691Z" fill="#D4AF37"/>
<path opacity="0.1" d="M51.0971 224.691C51.0238 220.486 47.8304 211.83 43.3723 206.447C38.9142 201.063 31.9844 197.191 27.1403 198.943C22.6291 200.575 23.2245 206.52 28.7995 210.37C34.3744 214.219 42.7385 219.031 45.2786 225.809L50.5052 234.089L51.0971 224.691Z" fill="black"/>
<path d="M51.5076 230.439C51.3736 230.431 51.2563 230.334 51.2263 230.197C48.1607 215.893 36.3463 204.43 29.3517 201.973C29.1918 201.916 29.1074 201.741 29.1632 201.581C29.2191 201.422 29.3908 201.334 29.5548 201.393C36.6828 203.896 48.7149 215.548 51.8266 230.068C51.8622 230.234 51.7568 230.397 51.5907 230.433C51.5634 230.439 51.5348 230.441 51.5076 230.439Z" fill="white"/>
<path d="M49.5273 239.664C48.8104 237.312 45.8558 233.462 41.1303 230.322C35.903 226.848 29.3376 225.323 27.7825 222.575C25.9139 219.275 28.6682 216.077 33.9856 216.642C39.303 217.208 48.7581 224.284 50.4388 235.158L49.5273 239.664Z" fill="#D4AF37"/>
<path d="M50.5107 237.166C50.3942 237.158 50.2867 237.084 50.2427 236.968C45.6268 224.748 36.1703 220.596 31.8148 220.108C31.6466 220.089 31.5252 219.937 31.5433 219.769C31.5621 219.6 31.7073 219.478 31.8825 219.497C36.698 220.037 46.105 224.279 50.8165 236.75C50.8765 236.909 50.7962 237.087 50.6378 237.147C50.5966 237.162 50.5526 237.169 50.5107 237.166Z" fill="white"/>
<path d="M278.526 210.764C278.526 210.764 278.033 203.529 280.55 197.383C283.067 191.237 287.281 186.917 291.735 185.731C296.189 184.545 300.601 188.034 296.289 191.776C291.977 195.517 283.92 200.006 281.924 211.41L278.526 210.764Z" fill="#D4AF37"/>
<path opacity="0.15" d="M278.526 210.764C278.526 210.764 278.033 203.529 280.55 197.383C283.067 191.237 287.281 186.917 291.735 185.731C296.189 184.545 300.601 188.034 296.289 191.776C291.977 195.517 283.92 200.006 281.924 211.41L278.526 210.764Z" fill="black"/>
<path d="M279.514 208.68C279.497 208.68 279.481 208.679 279.464 208.675C279.331 208.648 279.245 208.518 279.273 208.384C281.889 195.765 290.07 189.196 294.03 187.486C294.154 187.431 294.299 187.489 294.353 187.613C294.407 187.738 294.349 187.882 294.225 187.936C290.346 189.611 282.329 196.062 279.754 208.484C279.73 208.601 279.628 208.68 279.514 208.68Z" fill="white"/>
<path d="M301.18 204.661C300.925 205.722 299.948 206.429 299.025 207.013C298.107 207.592 297.1 208.225 296.732 209.251C295.991 211.323 298.254 213.63 297.425 215.667C297.076 216.522 296.242 217.091 295.378 217.415C294.661 217.69 293.905 217.828 293.163 218.029C292.8 218.087 292.437 218.127 292.078 218.142C291.018 218.181 289.888 218.338 289.04 219.04C287.704 220.15 287.591 222.113 286.953 223.729C286.188 225.663 284.479 227.15 282.515 227.793C281.862 228.004 280.64 228.353 279.889 228.097C279.83 228.078 279.781 228.058 279.732 228.034C279.727 228.034 279.722 228.029 279.717 228.024C279.604 227.935 279.462 227.823 279.398 227.759C279.384 227.749 279.374 227.734 279.364 227.72C278.922 226.797 279.168 225.707 279.001 224.701C278.991 224.637 278.982 224.578 278.967 224.519C278.711 223.361 278.466 222.207 278.226 221.049C277.779 218.919 277.361 216.778 276.984 214.633C276.743 213.239 276.296 211.747 276.645 210.328C277.033 208.766 278.649 208.437 279.002 206.911C279.144 206.302 279.164 205.674 279.296 205.061C279.699 203.259 281.196 201.742 282.998 201.32C285.801 200.658 288.761 202.484 291.55 201.757C292.271 201.566 292.944 201.212 293.641 200.947C295.855 200.097 298.623 200.264 300.268 201.968C300.954 202.678 301.41 203.699 301.18 204.661Z" fill="#D4AF37"/>
<g opacity="0.07">
<path d="M301.18 204.661C300.925 205.722 299.948 206.429 299.025 207.013C298.107 207.592 297.1 208.225 296.732 209.251C295.991 211.323 298.254 213.63 297.425 215.667C297.076 216.522 296.242 217.091 295.378 217.415C294.67 217.685 293.919 217.901 293.163 218.029C292.8 218.087 292.437 218.127 292.078 218.142C291.018 218.181 289.888 218.338 289.04 219.04C287.704 220.15 287.591 222.113 286.953 223.729C286.188 225.663 284.479 227.15 282.515 227.793C281.862 228.004 280.64 228.353 279.889 228.097C279.83 228.078 279.781 228.058 279.732 228.034C279.727 228.034 279.722 228.029 279.717 228.024C279.673 228.005 279.629 227.98 279.589 227.951C279.516 227.897 279.452 227.833 279.398 227.76C279.384 227.75 279.374 227.735 279.364 227.72C278.834 226.989 279.113 225.58 279.001 224.702C278.991 224.638 278.982 224.579 278.967 224.52C278.711 223.361 278.466 222.208 278.226 221.05C277.779 218.919 277.361 216.779 276.984 214.634C276.743 213.24 276.296 211.747 276.645 210.328C277.033 208.767 278.649 208.438 279.002 206.912C279.144 206.303 279.164 205.675 279.296 205.061C279.699 203.26 281.196 201.743 282.998 201.321C285.801 200.658 288.761 202.484 291.55 201.758C292.271 201.566 292.944 201.213 293.641 200.947C295.855 200.098 298.623 200.265 300.268 201.968C300.954 202.678 301.41 203.699 301.18 204.661Z" fill="#263238"/>
</g>
<path d="M278.315 223.304C278.308 223.304 278.302 223.303 278.295 223.303C278.16 223.293 278.059 223.174 278.07 223.04C279.291 207.651 294.36 202.698 298.024 202.296C298.157 202.283 298.28 202.379 298.295 202.514C298.31 202.648 298.213 202.77 298.078 202.784C294.494 203.177 279.754 208.024 278.559 223.079C278.549 223.206 278.441 223.304 278.315 223.304Z" fill="white"/>
<path d="M294.128 212.722C294.079 212.722 294.03 212.707 293.987 212.678C293.941 212.646 289.287 209.482 282.925 211.643C282.796 211.685 282.657 211.618 282.613 211.489C282.569 211.361 282.638 211.221 282.766 211.178C289.374 208.934 294.22 212.242 294.268 212.275C294.379 212.353 294.406 212.505 294.329 212.617C294.281 212.685 294.205 212.722 294.128 212.722Z" fill="white"/>
<path d="M149.6 136.305C150.085 135.697 150.386 134.938 150.386 134.101C150.386 132.14 148.797 130.551 146.836 130.551C145.83 130.551 144.927 130.973 144.281 131.645C144.317 131.285 144.336 130.92 144.336 130.551C144.336 124.604 139.515 119.783 133.568 119.783C131.637 119.783 129.83 120.298 128.263 121.187C128.512 120.614 128.651 119.983 128.651 119.319C128.651 116.72 126.544 114.613 123.945 114.613C123.062 114.613 122.239 114.86 121.534 115.283C121.608 114.737 121.661 114.184 121.661 113.618C121.661 106.886 116.203 101.428 109.471 101.428C104.755 101.428 100.673 104.111 98.6456 108.029C97.9972 106.504 96.4846 105.434 94.7222 105.434C92.9877 105.434 91.4981 106.472 90.8329 107.959C89.1452 105.247 86.1466 103.435 82.7166 103.435C77.4355 103.435 73.1547 107.716 73.1547 112.997C73.1547 113.483 73.2028 113.956 73.2726 114.423C72.6626 113.928 71.8955 113.62 71.0488 113.62C69.0881 113.62 67.4988 115.209 67.4988 117.17C67.4988 117.182 67.5023 117.194 67.5023 117.207C66.2522 116.485 64.8052 116.065 63.2577 116.065C58.9581 116.065 55.4129 119.259 54.8427 123.402C54.2605 123.182 53.633 123.057 52.9741 123.057C50.0495 123.057 47.6784 125.428 47.6784 128.352C47.6784 129.016 47.8054 129.647 48.0281 130.232C43.4534 132.055 40.2161 136.516 40.2161 141.741C40.2161 148.585 45.7652 154.134 52.6098 154.134L97.1017 184.114L144.701 153.473C149.829 153.473 153.987 149.315 153.987 144.187C153.989 140.855 152.231 137.944 149.6 136.305ZM143.364 135.005C143.374 134.982 143.386 134.96 143.397 134.938C143.401 134.958 143.41 134.977 143.415 134.997C143.397 135 143.38 135.003 143.364 135.005Z" fill="#F5F5F5"/>
<path d="M63.2592 116.063C58.9595 116.063 55.4144 119.257 54.8441 123.4C54.262 123.18 53.6345 123.055 52.9756 123.055C50.051 123.055 47.6798 125.426 47.6798 128.35C47.6798 129.013 47.8069 129.645 48.0295 130.23C43.4549 132.053 40.2175 136.514 40.2175 141.739C40.2175 148.583 45.7666 154.132 52.6112 154.132L97.1031 184.111L141.444 155.569L142.579 151.308C136.54 159.143 128.471 152.906 128.471 152.906C128.471 152.906 127.858 156.907 124.479 157.149C121.1 157.391 119.866 154.599 119.866 154.599C119.866 154.599 118.822 160.326 112.228 161.547C105.634 162.768 101.79 155.536 101.79 155.536C101.79 155.536 100.553 158.797 97.1031 157.92C93.6536 157.044 94.8765 155.156 94.8765 155.156C94.8765 155.156 92.9165 156.875 89.548 155.079C86.1794 153.282 85.9414 147.996 85.9414 147.996C85.9414 147.996 80.2346 150.557 75.35 145.917C70.4654 141.277 74.6003 134.899 74.6003 134.899C67.2567 136.337 67.5303 130.312 67.5303 130.312C57.2683 128.872 58.0095 118.807 63.2592 116.063Z" fill="#F0F0F0"/>
<path d="M108.559 170.949L107.002 263.518L116.685 257.927L119.867 164.42L108.559 170.949Z" fill="#FAFAFA"/>
<path d="M119.867 164.42L116.685 257.927L126.328 252.36L131.206 157.874L119.867 164.42Z" fill="#D4AF37"/>
<path d="M100.306 175.714C99.4707 176.195 98.377 176.437 97.2832 176.437V268.107C98.377 268.107 99.4707 267.867 100.306 267.384L107.002 263.518L108.559 170.949L100.306 175.714Z" fill="#D4AF37"/>
<path d="M135.929 246.817L142.461 243.046C144.13 242.082 145.62 239.744 145.789 237.824L153.989 144.72L142.579 151.308L135.929 246.817Z" fill="#D4AF37"/>
<path d="M131.206 157.874L126.328 252.36L135.929 246.817L142.579 151.308L131.206 157.874Z" fill="#FAFAFA"/>
<path d="M86.0064 170.949L87.5636 263.518L77.881 257.927L74.6995 164.42L86.0064 170.949Z" fill="#D4AF37"/>
<path d="M74.6994 164.42L77.8808 257.927L68.238 252.36L63.3604 157.874L74.6994 164.42Z" fill="#E6E6E6"/>
<path d="M94.2609 175.714C95.0957 176.195 96.1895 176.437 97.2833 176.437V268.107C96.1895 268.107 95.0957 267.867 94.2609 267.384L87.5643 263.518L86.0071 170.949L94.2609 175.714Z" fill="#E6E6E6"/>
<path d="M58.6377 246.817L52.1058 243.046C50.4362 242.082 48.946 239.744 48.777 237.824L40.5776 144.72L51.9871 151.308L58.6377 246.817Z" fill="#E6E6E6"/>
<path d="M63.3603 157.874L68.2379 252.36L58.6376 246.817L51.9871 151.308L63.3603 157.874Z" fill="#D4AF37"/>
<path opacity="0.1" d="M86.0064 170.949L87.5636 263.518L77.881 257.927L74.6995 164.42L86.0064 170.949Z" fill="black"/>
<path opacity="0.1" d="M63.3603 157.874L68.2379 252.36L58.6376 246.817L51.9871 151.308L63.3603 157.874Z" fill="black"/>
<path d="M94.8765 155.154C93.8051 156.63 92.0671 157.59 90.1057 157.59C86.8551 157.59 84.2195 154.954 84.2195 151.703C84.2195 148.986 86.0615 146.699 88.5638 146.021C87.8596 146.988 87.4442 148.185 87.4442 149.472C87.4442 152.722 90.0834 155.358 93.334 155.358C93.8679 155.358 94.3831 155.288 94.8765 155.154Z" fill="#E0E0E0"/>
<path d="M101.79 155.535C101.918 156.715 101.498 157.939 100.553 158.796C98.9843 160.217 96.5601 160.097 95.139 158.529C93.951 157.218 93.84 155.309 94.7509 153.887C94.834 154.662 95.1571 155.422 95.7197 156.042C97.1409 157.61 99.5671 157.728 101.136 156.307C101.392 156.074 101.61 155.815 101.79 155.535Z" fill="#E0E0E0"/>
<path d="M78.3107 127.658C79.3089 129.184 79.5881 131.15 78.8915 132.982C77.7356 136.021 74.3356 137.547 71.2972 136.392C68.7579 135.426 67.2747 132.892 67.5301 130.312C68.1842 131.314 69.1558 132.128 70.3577 132.585C73.3961 133.741 76.7975 132.211 77.9534 129.172C78.1432 128.673 78.2605 128.166 78.3107 127.658Z" fill="#E0E0E0"/>
<path d="M69.1914 133.247C69.7415 134.299 69.7987 135.591 69.2305 136.734C68.2896 138.63 65.989 139.404 64.0932 138.463C62.5088 137.676 61.7082 135.94 62.0362 134.284C62.3964 134.975 62.975 135.563 63.7247 135.936C65.6205 136.877 67.9218 136.101 68.8627 134.205C69.0183 133.894 69.1265 133.573 69.1914 133.247Z" fill="#E0E0E0"/>
<path d="M130.146 141.833C130.255 143.653 129.522 145.498 128.006 146.743C125.495 148.807 121.786 148.445 119.722 145.934C117.996 143.835 117.968 140.898 119.47 138.785C119.54 139.98 119.979 141.168 120.796 142.162C122.86 144.674 126.573 145.034 129.084 142.97C129.497 142.63 129.85 142.249 130.146 141.833Z" fill="#E0E0E0"/>
<path d="M136.525 139.054C136.653 140.234 136.234 141.458 135.288 142.315C133.72 143.736 131.295 143.617 129.874 142.049C128.686 140.738 128.575 138.829 129.486 137.407C129.569 138.182 129.892 138.941 130.455 139.562C131.876 141.13 134.302 141.248 135.871 139.827C136.128 139.594 136.346 139.335 136.525 139.054Z" fill="#E0E0E0"/>
<path d="M119.914 132.579C120.977 133.109 121.78 134.123 121.99 135.382C122.338 137.47 120.927 139.445 118.84 139.793C117.095 140.084 115.428 139.146 114.725 137.611C115.421 137.96 116.235 138.099 117.061 137.961C119.149 137.613 120.559 135.635 120.211 133.548C120.153 133.204 120.053 132.881 119.914 132.579Z" fill="#E0E0E0"/>
<path d="M243.973 60.005C234.98 54.9933 222.645 55.8184 209.036 63.673C181.504 79.5727 159.182 118.231 159.182 150.018C159.182 167.656 166.055 179.472 176.868 183.788C185.548 187.251 196.777 185.881 209.036 178.803C236.568 162.903 258.89 124.251 258.89 92.4585C258.891 76.3821 253.177 65.1395 243.973 60.005ZM244.463 79.2872C241.661 82.3417 238.709 85.6823 235.756 89.1939C229.491 96.5983 223.409 104.65 218.997 111.155C218.268 112.205 217.613 113.214 217 114.162C216.379 113.678 215.574 113.467 214.668 113.528C214.879 112.792 215.091 112.014 215.302 111.203C214.927 111.769 214.572 112.314 214.225 112.846C213.611 112.362 212.806 112.151 211.893 112.213C212.186 111.203 212.479 110.112 212.772 108.974C214.661 101.821 216.556 92.6511 217.722 83.8626C218.309 79.7786 218.745 75.7421 219.072 72.0196C225.802 70.2062 231.802 70.84 236.568 73.6153C239.63 74.7663 242.295 76.6753 244.463 79.2872ZM176.378 115.682C181.553 103.485 189.605 91.935 199.034 83.589C199.137 84.7616 199.252 85.9482 199.389 87.1481C200.186 86.3775 200.991 85.6278 201.809 84.9047C202.095 88.2663 202.532 91.8044 203.118 95.2072C204.318 102.632 206.179 109.641 208.075 114.598C208.361 115.403 208.689 116.14 208.948 116.828C208.034 117.816 207.27 118.934 206.616 120.155C205.995 119.923 205.34 119.671 204.645 119.439C200.241 118.028 194.159 116.998 187.852 116.855C184.941 116.725 181.988 116.787 179.145 116.998C179.357 116.5 179.574 116.003 179.793 115.511C178.641 115.539 177.503 115.6 176.378 115.682ZM181.587 168.339C180.782 167.657 180.032 166.9 179.33 166.075C179.153 166.396 178.99 166.709 178.819 167.023C173.392 162.414 170.112 154.423 170.112 143.698C170.112 142.9 170.153 142.075 170.153 141.277C173.173 140.248 176.453 139.068 179.732 137.725C186.728 134.861 193.976 131.139 199.546 127.716C200.459 127.143 201.332 126.598 202.137 126.053C202.205 127.13 202.471 127.982 202.934 128.643C203.623 128.207 204.284 127.791 204.905 127.368C204.973 128.5 205.266 129.386 205.777 130.061C205.082 130.92 204.359 131.888 203.63 132.898C199 139.232 193.389 147.728 188.329 156.373C185.923 160.409 183.666 164.445 181.587 168.339ZM211.826 167.5C206.91 170.336 202.171 172.02 197.835 172.545C198.094 171.89 198.353 171.229 198.605 170.56C197.399 170.868 196.219 171.092 195.067 171.228C196.635 167.253 198.162 163.047 199.621 158.758C202.751 149.588 205.375 140.247 206.944 133.156C207.196 132.045 207.38 130.974 207.598 129.966C208.069 129.815 208.546 129.584 209.057 129.291C209.528 129.018 210.005 128.697 210.476 128.302L210.51 128.282C210.694 129.059 210.878 129.918 211.171 130.723C211.191 130.791 211.212 130.853 211.232 130.92C211.423 130.832 211.621 130.723 211.826 130.607C212.296 130.334 212.773 130.021 213.244 129.619L213.285 129.598C213.462 130.376 213.647 131.241 213.94 132.039C215.501 137.317 218.092 143.644 221.262 149.18C222.715 151.784 224.249 154.225 225.81 156.394C221.48 160.873 216.775 164.637 211.826 167.5ZM239.473 131.684C239.404 131.834 239.33 131.977 239.254 132.127C237.215 130.613 234.918 129.209 232.552 127.92C232.04 127.634 231.515 127.361 230.991 127.095C227.193 125.404 223.32 124.171 219.986 123.455C219.256 123.284 218.527 123.161 217.872 123.08C217.975 122.834 218.064 122.595 218.145 122.35C217.832 122.276 217.518 122.207 217.211 122.139C216.489 121.969 215.759 121.846 215.105 121.764C215.609 120.496 215.903 119.282 215.977 118.062C216.775 117.68 217.655 117.217 218.527 116.752C224.098 113.745 231.345 109.102 238.382 103.86C241.661 101.426 244.9 98.8347 247.921 96.3736C247.921 97.1784 247.962 97.9552 247.962 98.753C247.962 99.1348 247.955 99.5236 247.948 99.9124C248.882 99.1621 249.795 98.4194 250.695 97.69C250.695 98.4948 250.729 99.2717 250.729 100.069C250.729 110.794 247.45 122.576 242.022 133.444C241.211 132.843 240.359 132.257 239.473 131.684Z" fill="#D4AF37"/>
<path opacity="0.4" d="M243.973 60.005C234.98 54.9933 222.645 55.8184 209.036 63.673C181.504 79.5727 159.182 118.231 159.182 150.018C159.182 167.656 166.055 179.472 176.868 183.788C185.548 187.251 196.777 185.881 209.036 178.803C236.568 162.903 258.89 124.251 258.89 92.4585C258.891 76.3821 253.177 65.1395 243.973 60.005ZM244.463 79.2872C241.661 82.3417 238.709 85.6823 235.756 89.1939C229.491 96.5983 223.409 104.65 218.997 111.155C218.268 112.205 217.613 113.214 217 114.162C216.379 113.678 215.574 113.467 214.668 113.528C214.879 112.792 215.091 112.014 215.302 111.203C214.927 111.769 214.572 112.314 214.225 112.846C213.611 112.362 212.806 112.151 211.893 112.213C212.186 111.203 212.479 110.112 212.772 108.974C214.661 101.821 216.556 92.6511 217.722 83.8626C218.309 79.7786 218.745 75.7421 219.072 72.0196C225.802 70.2062 231.802 70.84 236.568 73.6153C239.63 74.7663 242.295 76.6753 244.463 79.2872ZM176.378 115.682C181.553 103.485 189.605 91.935 199.034 83.589C199.137 84.7616 199.252 85.9482 199.389 87.1481C200.186 86.3775 200.991 85.6278 201.809 84.9047C202.095 88.2663 202.532 91.8044 203.118 95.2072C204.318 102.632 206.179 109.641 208.075 114.598C208.361 115.403 208.689 116.14 208.948 116.828C208.034 117.816 207.27 118.934 206.616 120.155C205.995 119.923 205.34 119.671 204.645 119.439C200.241 118.028 194.159 116.998 187.852 116.855C184.941 116.725 181.988 116.787 179.145 116.998C179.357 116.5 179.574 116.003 179.793 115.511C178.641 115.539 177.503 115.6 176.378 115.682ZM181.587 168.339C180.782 167.657 180.032 166.9 179.33 166.075C179.153 166.396 178.99 166.709 178.819 167.023C173.392 162.414 170.112 154.423 170.112 143.698C170.112 142.9 170.153 142.075 170.153 141.277C173.173 140.248 176.453 139.068 179.732 137.725C186.728 134.861 193.976 131.139 199.546 127.716C200.459 127.143 201.332 126.598 202.137 126.053C202.205 127.13 202.471 127.982 202.934 128.643C203.623 128.207 204.284 127.791 204.905 127.368C204.973 128.5 205.266 129.386 205.777 130.061C205.082 130.92 204.359 131.888 203.63 132.898C199 139.232 193.389 147.728 188.329 156.373C185.923 160.409 183.666 164.445 181.587 168.339ZM211.826 167.5C206.91 170.336 202.171 172.02 197.835 172.545C198.094 171.89 198.353 171.229 198.605 170.56C197.399 170.868 196.219 171.092 195.067 171.228C196.635 167.253 198.162 163.047 199.621 158.758C202.751 149.588 205.375 140.247 206.944 133.156C207.196 132.045 207.38 130.974 207.598 129.966C208.069 129.815 208.546 129.584 209.057 129.291C209.528 129.018 210.005 128.697 210.476 128.302L210.51 128.282C210.694 129.059 210.878 129.918 211.171 130.723C211.191 130.791 211.212 130.853 211.232 130.92C211.423 130.832 211.621 130.723 211.826 130.607C212.296 130.334 212.773 130.021 213.244 129.619L213.285 129.598C213.462 130.376 213.647 131.241 213.94 132.039C215.501 137.317 218.092 143.644 221.262 149.18C222.715 151.784 224.249 154.225 225.81 156.394C221.48 160.873 216.775 164.637 211.826 167.5ZM239.473 131.684C239.404 131.834 239.33 131.977 239.254 132.127C237.215 130.613 234.918 129.209 232.552 127.92C232.04 127.634 231.515 127.361 230.991 127.095C227.193 125.404 223.32 124.171 219.986 123.455C219.256 123.284 218.527 123.161 217.872 123.08C217.975 122.834 218.064 122.595 218.145 122.35C217.832 122.276 217.518 122.207 217.211 122.139C216.489 121.969 215.759 121.846 215.105 121.764C215.609 120.496 215.903 119.282 215.977 118.062C216.775 117.68 217.655 117.217 218.527 116.752C224.098 113.745 231.345 109.102 238.382 103.86C241.661 101.426 244.9 98.8347 247.921 96.3736C247.921 97.1784 247.962 97.9552 247.962 98.753C247.962 99.1348 247.955 99.5236 247.948 99.9124C248.882 99.1621 249.795 98.4194 250.695 97.69C250.695 98.4948 250.729 99.2717 250.729 100.069C250.729 110.794 247.45 122.576 242.022 133.444C241.211 132.843 240.359 132.257 239.473 131.684Z" fill="white"/>
<path d="M243.973 60.005C235.293 56.5415 224.064 57.9117 211.805 64.9887C184.273 80.8884 161.951 119.547 161.951 151.34C161.951 167.417 167.665 178.654 176.869 183.788C185.862 188.799 198.196 187.974 211.805 180.12C239.337 164.227 261.659 125.567 261.659 93.7749C261.659 76.1371 254.786 64.3214 243.973 60.005ZM218.146 122.35C218.487 121.348 218.685 120.36 218.746 119.378C219.544 118.996 220.424 118.532 221.296 118.068C226.866 115.061 234.121 110.418 241.151 105.182C243.455 103.463 245.739 101.677 247.948 99.911C248.882 99.1607 249.796 98.418 250.696 97.6886C250.696 98.4934 250.73 99.2703 250.73 100.068C250.73 110.793 247.451 122.575 242.023 133.443C241.212 132.843 240.36 132.256 239.473 131.684C238.144 130.832 236.746 130.014 235.321 129.236C233.91 128.459 232.457 127.743 230.991 127.095C227.193 125.404 223.321 124.171 219.987 123.455C219.257 123.284 218.528 123.161 217.873 123.08C217.975 122.834 218.064 122.596 218.146 122.35ZM244.463 79.2872C241.661 82.3417 238.709 85.6823 235.757 89.1939C229.491 96.5983 223.409 104.65 218.998 111.155C218.268 112.205 217.613 113.214 217 114.162C216.379 113.678 215.575 113.467 214.668 113.528C214.879 112.792 215.091 112.014 215.302 111.203C215.383 110.903 215.459 110.597 215.54 110.29C217.436 103.137 219.324 93.9669 220.491 85.1783C221.077 81.1013 221.513 77.0578 221.84 73.3354C227.322 71.8556 232.327 72.0057 236.568 73.6146C239.63 74.7663 242.295 76.6753 244.463 79.2872ZM211.826 130.607C212.296 130.334 212.773 130.021 213.244 129.619L213.285 129.598C213.462 130.376 213.647 131.241 213.94 132.039C215.501 137.317 218.092 143.644 221.263 149.18C222.715 151.784 224.249 154.225 225.81 156.394C221.48 160.874 216.776 164.637 211.826 167.5C206.91 170.337 202.172 172.021 197.836 172.546C198.095 171.891 198.353 171.23 198.606 170.561C199.909 167.179 201.17 163.654 202.39 160.075C205.526 150.905 208.144 141.564 209.713 134.48C209.965 133.362 210.149 132.291 210.367 131.283C210.654 131.194 210.941 131.071 211.234 130.921C211.423 130.832 211.62 130.723 211.826 130.607ZM172.88 145.014C172.88 144.216 172.921 143.391 172.921 142.593C175.941 141.563 179.221 140.384 182.501 139.041C189.496 136.177 196.744 132.455 202.314 129.032C202.525 128.902 202.73 128.773 202.934 128.643C203.623 128.207 204.284 127.791 204.905 127.368C204.973 128.5 205.266 129.385 205.777 130.06C205.082 130.92 204.359 131.888 203.63 132.897C199 139.231 193.389 147.727 188.329 156.372C185.923 160.409 183.666 164.445 181.586 168.338C180.781 167.656 180.032 166.899 179.329 166.074C175.259 161.309 172.88 154.15 172.88 145.014ZM201.809 84.9054C202.095 88.267 202.532 91.8051 203.118 95.2079C204.318 102.633 206.179 109.642 208.075 114.599C208.361 115.404 208.689 116.14 208.948 116.828C208.034 117.817 207.27 118.935 206.616 120.156C205.995 119.924 205.34 119.672 204.645 119.44C200.241 118.028 194.159 116.999 187.852 116.856C184.941 116.726 181.988 116.787 179.145 116.999C179.357 116.501 179.574 116.003 179.793 115.512C184.511 104.916 191.377 94.9008 199.388 87.1488C200.186 86.3775 200.991 85.6278 201.809 84.9054Z" fill="#D4AF37"/>
<path opacity="0.15" d="M243.973 60.005C235.293 56.5415 224.064 57.9117 211.805 64.9887C184.273 80.8884 161.951 119.547 161.951 151.34C161.951 167.417 167.665 178.654 176.869 183.788C185.862 188.799 198.196 187.974 211.805 180.12C239.337 164.227 261.659 125.567 261.659 93.7749C261.659 76.1371 254.786 64.3214 243.973 60.005ZM218.146 122.35C218.487 121.348 218.685 120.36 218.746 119.378C219.544 118.996 220.424 118.532 221.296 118.068C226.866 115.061 234.121 110.418 241.151 105.182C243.455 103.463 245.739 101.677 247.948 99.911C248.882 99.1607 249.796 98.418 250.696 97.6886C250.696 98.4934 250.73 99.2703 250.73 100.068C250.73 110.793 247.451 122.575 242.023 133.443C241.212 132.843 240.36 132.256 239.473 131.684C238.144 130.832 236.746 130.014 235.321 129.236C233.91 128.459 232.457 127.743 230.991 127.095C227.193 125.404 223.321 124.171 219.987 123.455C219.257 123.284 218.528 123.161 217.873 123.08C217.975 122.834 218.064 122.596 218.146 122.35ZM244.463 79.2872C241.661 82.3417 238.709 85.6823 235.757 89.1939C229.491 96.5983 223.409 104.65 218.998 111.155C218.268 112.205 217.613 113.214 217 114.162C216.379 113.678 215.575 113.467 214.668 113.528C214.879 112.792 215.091 112.014 215.302 111.203C215.383 110.903 215.459 110.597 215.54 110.29C217.436 103.137 219.324 93.9669 220.491 85.1783C221.077 81.1013 221.513 77.0578 221.84 73.3354C227.322 71.8556 232.327 72.0057 236.568 73.6146C239.63 74.7663 242.295 76.6753 244.463 79.2872ZM211.826 130.607C212.296 130.334 212.773 130.021 213.244 129.619L213.285 129.598C213.462 130.376 213.647 131.241 213.94 132.039C215.501 137.317 218.092 143.644 221.263 149.18C222.715 151.784 224.249 154.225 225.81 156.394C221.48 160.874 216.776 164.637 211.826 167.5C206.91 170.337 202.172 172.021 197.836 172.546C198.095 171.891 198.353 171.23 198.606 170.561C199.909 167.179 201.17 163.654 202.39 160.075C205.526 150.905 208.144 141.564 209.713 134.48C209.965 133.362 210.149 132.291 210.367 131.283C210.654 131.194 210.941 131.071 211.234 130.921C211.423 130.832 211.62 130.723 211.826 130.607ZM172.88 145.014C172.88 144.216 172.921 143.391 172.921 142.593C175.941 141.563 179.221 140.384 182.501 139.041C189.496 136.177 196.744 132.455 202.314 129.032C202.525 128.902 202.73 128.773 202.934 128.643C203.623 128.207 204.284 127.791 204.905 127.368C204.973 128.5 205.266 129.385 205.777 130.06C205.082 130.92 204.359 131.888 203.63 132.897C199 139.231 193.389 147.727 188.329 156.372C185.923 160.409 183.666 164.445 181.586 168.338C180.781 167.656 180.032 166.899 179.329 166.074C175.259 161.309 172.88 154.15 172.88 145.014ZM201.809 84.9054C202.095 88.267 202.532 91.8051 203.118 95.2079C204.318 102.633 206.179 109.642 208.075 114.599C208.361 115.404 208.689 116.14 208.948 116.828C208.034 117.817 207.27 118.935 206.616 120.156C205.995 119.924 205.34 119.672 204.645 119.44C200.241 118.028 194.159 116.999 187.852 116.856C184.941 116.726 181.988 116.787 179.145 116.999C179.357 116.501 179.574 116.003 179.793 115.512C184.511 104.916 191.377 94.9008 199.388 87.1488C200.186 86.3775 200.991 85.6278 201.809 84.9054Z" fill="black"/>
<path d="M205.777 130.062C205.082 130.921 204.359 131.889 203.63 132.899C199 139.233 193.388 147.728 188.329 156.374C185.923 160.41 183.666 164.446 181.586 168.339C180.781 167.658 180.032 166.901 179.329 166.076C181.266 162.476 183.352 158.767 185.561 155.058C190.62 146.412 196.231 137.917 200.861 131.583C201.584 130.573 202.314 129.605 203.009 128.747C202.982 128.713 202.962 128.678 202.934 128.644C203.623 128.208 204.284 127.792 204.904 127.369C204.973 128.5 205.266 129.387 205.777 130.062Z" fill="#D4AF37"/>
<path opacity="0.4" d="M205.777 130.062C205.082 130.921 204.359 131.889 203.63 132.899C199 139.233 193.388 147.728 188.329 156.374C185.923 160.41 183.666 164.446 181.586 168.339C180.781 167.658 180.032 166.901 179.329 166.076C181.266 162.476 183.352 158.767 185.561 155.058C190.62 146.412 196.231 137.917 200.861 131.583C201.584 130.573 202.314 129.605 203.009 128.747C202.982 128.713 202.962 128.678 202.934 128.644C203.623 128.208 204.284 127.792 204.904 127.369C204.973 128.5 205.266 129.387 205.777 130.062Z" fill="black"/>
<path d="M225.809 156.393C221.479 160.873 216.775 164.637 211.825 167.5C206.909 170.336 202.171 172.02 197.835 172.545C198.094 171.89 198.353 171.229 198.605 170.56C201.926 169.728 205.444 168.263 209.058 166.176C214.008 163.319 218.713 159.556 223.042 155.077C221.48 152.909 219.946 150.468 218.487 147.863C215.364 142.395 212.794 136.156 211.233 130.92C211.423 130.831 211.622 130.722 211.826 130.606C212.297 130.333 212.774 130.02 213.244 129.618L213.286 129.598C213.463 130.375 213.647 131.241 213.94 132.039C215.502 137.316 218.093 143.643 221.263 149.179C222.714 151.784 224.248 154.225 225.809 156.393Z" fill="#D4AF37"/>
<path opacity="0.3" d="M225.809 156.393C221.479 160.873 216.775 164.637 211.825 167.5C206.909 170.336 202.171 172.02 197.835 172.545C198.094 171.89 198.353 171.229 198.605 170.56C201.926 169.728 205.444 168.263 209.058 166.176C214.008 163.319 218.713 159.556 223.042 155.077" fill="black"/>
<path opacity="0.4" d="M221.262 149.179C218.091 143.643 215.5 137.316 213.939 132.039C213.646 131.241 213.462 130.375 213.284 129.598L213.243 129.618C212.773 130.02 212.295 130.334 211.825 130.606C211.62 130.722 211.423 130.831 211.231 130.92C212.793 136.156 215.364 142.395 218.486 147.863C219.945 150.467 221.479 152.908 223.04 155.077L225.808 156.392C224.248 154.225 222.714 151.784 221.262 149.179Z" fill="black"/>
<path d="M230.991 127.095C227.193 125.404 223.321 124.171 219.987 123.455C219.257 123.284 218.528 123.161 217.873 123.08C217.976 122.834 218.064 122.595 218.146 122.35C222.1 123.284 226.689 124.907 230.991 127.095Z" fill="#D4AF37"/>
<path d="M250.729 100.069C250.729 110.794 247.45 122.576 242.022 133.444C241.211 132.843 240.359 132.257 239.473 131.685C244.579 121.335 247.729 110.174 247.948 99.9124C248.882 99.1621 249.795 98.4194 250.695 97.69C250.696 98.4934 250.729 99.271 250.729 100.069Z" fill="#D4AF37"/>
<path opacity="0.4" d="M230.991 127.095C227.193 125.404 223.321 124.171 219.987 123.455C219.257 123.284 218.528 123.161 217.873 123.08C217.976 122.834 218.064 122.595 218.146 122.35C222.1 123.284 226.689 124.907 230.991 127.095Z" fill="black"/>
<path opacity="0.3" d="M250.729 100.069C250.729 110.794 247.45 122.576 242.022 133.444C241.211 132.843 240.359 132.257 239.473 131.685C244.579 121.335 247.729 110.174 247.948 99.9124C248.882 99.1621 249.795 98.4194 250.695 97.69C250.696 98.4934 250.729 99.271 250.729 100.069Z" fill="black"/>
<path d="M244.463 79.2872C241.661 82.3417 238.709 85.6823 235.756 89.1939C229.49 96.5983 223.409 104.65 218.997 111.155C218.268 112.205 217.613 113.214 217 114.162C216.379 113.678 215.574 113.467 214.668 113.528C214.879 112.792 215.091 112.014 215.302 111.203C215.602 110.76 215.908 110.304 216.228 109.839C220.64 103.335 226.721 95.2826 232.987 87.8782C235.94 84.3666 238.885 81.019 241.694 77.9715C240.208 76.1853 238.49 74.7258 236.567 73.6146C239.63 74.7663 242.295 76.6753 244.463 79.2872Z" fill="#D4AF37"/>
<path opacity="0.4" d="M244.463 79.2872C241.661 82.3417 238.709 85.6823 235.756 89.1939C229.49 96.5983 223.409 104.65 218.997 111.155C218.268 112.205 217.613 113.214 217 114.162C216.379 113.678 215.574 113.467 214.668 113.528C214.879 112.792 215.091 112.014 215.302 111.203C215.602 110.76 215.908 110.304 216.228 109.839C220.64 103.335 226.721 95.2826 232.987 87.8782C235.94 84.3666 238.885 81.019 241.694 77.9715C240.208 76.1853 238.49 74.7258 236.567 73.6146C239.63 74.7663 242.295 76.6753 244.463 79.2872Z" fill="black"/>
<path d="M208.948 116.828C208.034 117.816 207.27 118.934 206.616 120.155C205.995 119.923 205.34 119.671 204.645 119.439C200.241 118.028 194.159 116.998 187.852 116.855C184.941 116.725 181.988 116.787 179.145 116.998C179.357 116.5 179.575 116.003 179.793 115.511C181.552 115.45 183.325 115.457 185.084 115.532C191.384 115.682 197.473 116.711 201.877 118.123C202.572 118.354 203.227 118.606 203.847 118.839C204.502 117.618 205.266 116.5 206.179 115.511C205.921 114.822 205.593 114.086 205.3 113.282C203.411 108.318 201.55 101.316 200.35 93.8908C199.968 91.6746 199.648 89.3977 199.389 87.1474C200.186 86.3768 200.991 85.6271 201.809 84.904C202.096 88.2656 202.532 91.8038 203.118 95.2065C204.318 102.631 206.179 109.64 208.075 114.598C208.361 115.402 208.689 116.139 208.948 116.828Z" fill="#D4AF37"/>
<path opacity="0.4" d="M206.18 115.512C205.267 116.5 204.503 117.619 203.848 118.839C203.228 118.608 202.573 118.356 201.878 118.123C197.473 116.712 191.385 115.682 185.085 115.532C183.326 115.458 181.553 115.451 179.794 115.512C179.575 116.003 179.357 116.5 179.146 116.999C181.989 116.787 184.941 116.726 187.853 116.856C194.159 116.999 200.242 118.028 204.646 119.44C205.341 119.671 205.996 119.924 206.616 120.156C207.271 118.936 208.035 117.818 208.948 116.828L206.18 115.512Z" fill="black"/>
<path opacity="0.3" d="M206.18 115.512C205.921 114.823 205.594 114.087 205.301 113.283C203.412 108.319 201.551 101.317 200.351 93.8915C199.969 91.6753 199.648 89.3984 199.389 87.1481C200.187 86.3775 200.992 85.6278 201.81 84.9047C202.096 88.2663 202.533 91.8044 203.119 95.2072C204.319 102.632 206.18 109.641 208.076 114.598C208.362 115.403 208.69 116.14 208.949 116.828" fill="black"/>
<path d="M235.759 79.0297L256.799 91.1693C256.138 90.7903 255.447 90.4559 254.734 90.1739C248.612 87.7372 240.7 88.7032 232.059 93.6884C212.653 104.892 196.925 132.143 196.925 154.55C196.925 165.524 200.707 173.302 206.836 177.069L186.041 165.041C179.719 161.357 175.796 153.511 175.796 142.345C175.796 119.937 191.532 92.686 210.938 81.4824C219.578 76.4973 227.491 75.5313 233.605 77.968C234.356 78.264 235.068 78.6283 235.759 79.0297Z" fill="#4A8AC4"/>
<path d="M187.902 161.824C182.495 158.673 179.511 151.751 179.511 142.343C179.511 121.153 194.442 95.2931 212.795 84.6974C217.669 81.8859 222.453 80.3991 226.631 80.3991C228.651 80.3991 230.535 80.7418 232.23 81.4168C232.753 81.6241 233.295 81.8928 233.894 82.2405L240.6 86.1102C237.217 86.9722 233.741 88.4282 230.203 90.4692C209.806 102.246 193.211 130.992 193.211 154.549C193.211 158.621 193.694 162.365 194.63 165.716L187.902 161.824Z" fill="#DBDBDB"/>
<path d="M254.731 90.1753C248.614 87.7344 240.699 88.6997 232.059 93.6884C212.656 104.895 196.923 132.141 196.923 154.548C196.923 165.879 200.949 173.799 207.437 177.417C213.775 180.949 222.468 180.367 232.059 174.832C251.463 163.63 267.196 136.384 267.196 113.976C267.197 101.545 262.352 93.2172 254.731 90.1753Z" fill="#DBDBDB"/>
<path d="M175.878 139.657L197.008 151.857C197.095 150.252 197.26 148.628 197.493 146.99L176.364 134.791C176.129 136.428 175.965 138.053 175.878 139.657Z" fill="#4A8AC4"/>
<path d="M204.158 86.1576L225.289 98.3573C226.572 97.3263 227.882 96.3666 229.212 95.4759L208.081 83.2756C206.751 84.1669 205.442 85.1267 204.158 86.1576Z" fill="#4A8AC4"/>
<path d="M194.154 96.0909C193.201 97.2398 192.277 98.4236 191.38 99.636L212.51 111.835C213.407 110.623 214.331 109.439 215.284 108.29L194.154 96.0909Z" fill="#4A8AC4"/>
<path d="M182.805 113.981C182.165 115.338 181.564 116.708 181.002 118.087L202.132 130.287C202.695 128.908 203.294 127.538 203.935 126.181L182.805 113.981Z" fill="#4A8AC4"/>
<path d="M256.799 91.1714C256.138 90.7896 255.449 90.4552 254.733 90.176C248.931 87.8649 241.533 88.6076 233.42 92.9373C236.501 91.2398 241.281 88.676 246.674 85.3284L256.799 91.1714Z" fill="#263238"/>
<path d="M232.06 93.6849C242.155 88.0129 282.779 67.8938 282.779 39.1117L261.657 26.9079C261.657 55.6899 221.034 75.8091 210.938 81.481L214.69 83.649L217.879 81.5543L232.098 89.7691L228.409 91.5748L232.06 93.6849Z" fill="#4A8AC4"/>
<path d="M217.879 81.5543C232.079 73.6886 260.618 56.6015 264.6 32.5463L279.301 41.0403C277.623 64.8791 245.259 82.5734 232.874 89.3447C232.605 89.4913 232.346 89.633 232.097 89.7698L217.879 81.5543Z" fill="#DBDBDB"/>
<path d="M244.19 59.3139C243.123 60.289 242.033 61.2376 240.929 62.159L262.103 74.3202C263.205 73.3982 264.294 72.4496 265.36 71.4738L244.19 59.3139Z" fill="#4A8AC4"/>
<path d="M227.446 71.9338C226.094 72.7972 224.773 73.6139 223.496 74.3831L244.679 86.5499C245.955 85.78 247.276 84.9634 248.626 84.0999L227.446 71.9338Z" fill="#4A8AC4"/>
<path d="M256.766 44.1422C256.094 45.3204 255.367 46.4763 254.589 47.6099L275.746 59.7621C276.523 58.6278 277.248 57.4712 277.918 56.2923L256.766 44.1422Z" fill="#4A8AC4"/>
<path d="M217.879 81.5543C214.574 83.367 211.689 85.3584 211.689 85.3584L225.653 93.4203C225.653 93.4203 228.574 91.7025 232.098 89.7691L217.879 81.5543Z" fill="#DBDBDB"/>
<path d="M263.358 71.2079C254.365 66.1962 242.031 67.0213 228.422 74.8759C200.89 90.7756 178.568 129.434 178.568 161.221C178.568 178.859 185.44 190.675 196.254 194.99C204.934 198.454 216.164 197.084 228.423 190.006C255.954 174.106 278.276 135.454 278.276 103.661C278.276 87.585 272.563 76.3424 263.358 71.2079ZM263.85 90.4901C261.047 93.5446 258.095 96.8852 255.143 100.397C248.877 107.801 242.795 115.853 238.384 122.358C237.654 123.408 237 124.417 236.386 125.365C235.765 124.881 234.961 124.67 234.054 124.731C234.265 123.995 234.477 123.217 234.688 122.406C234.314 122.972 233.959 123.517 233.611 124.049C232.998 123.565 232.193 123.354 231.279 123.415C231.573 122.406 231.866 121.315 232.159 120.177C234.048 113.024 235.943 103.854 237.109 95.0655C237.695 90.9815 238.132 86.945 238.459 83.2225C245.188 81.4091 251.188 82.0429 255.954 84.8182C259.015 85.9692 261.681 87.8782 263.85 90.4901ZM195.763 126.885C200.938 114.688 208.99 103.138 218.42 94.7926C218.523 95.9652 218.639 97.1518 218.775 98.3517C219.573 97.5811 220.377 96.8314 221.195 96.1083C221.482 99.4699 221.918 103.008 222.505 106.411C223.705 113.835 225.566 120.845 227.461 125.802C227.748 126.607 228.075 127.343 228.334 128.031C227.42 129.02 226.657 130.138 226.002 131.359C225.381 131.127 224.727 130.874 224.031 130.643C219.627 129.231 213.545 128.202 207.238 128.059C204.327 127.929 201.374 127.99 198.531 128.202C198.743 127.704 198.961 127.206 199.179 126.715C198.027 126.742 196.888 126.804 195.763 126.885ZM200.972 179.542C200.167 178.86 199.418 178.103 198.716 177.278C198.538 177.598 198.375 177.912 198.204 178.226C192.777 173.617 189.497 165.626 189.497 154.901C189.497 154.103 189.538 153.278 189.538 152.48C192.559 151.451 195.838 150.271 199.118 148.928C206.113 146.064 213.361 142.342 218.931 138.919C219.845 138.346 220.717 137.801 221.522 137.255C221.59 138.332 221.856 139.185 222.32 139.846C223.009 139.41 223.67 138.994 224.29 138.571C224.359 139.703 224.652 140.589 225.163 141.265C224.468 142.124 223.745 143.092 223.015 144.101C218.385 150.435 212.774 158.93 207.715 167.576C205.309 171.612 203.052 175.648 200.972 179.542ZM231.211 178.703C226.295 181.539 221.556 183.223 217.22 183.748C217.479 183.093 217.738 182.432 217.991 181.764C216.784 182.071 215.604 182.296 214.452 182.432C216.02 178.457 217.548 174.25 219.007 169.962C222.136 160.791 224.761 151.451 226.329 144.36C226.582 143.248 226.765 142.178 226.984 141.168C227.454 141.018 227.932 140.787 228.443 140.493C228.913 140.221 229.391 139.9 229.861 139.505L229.895 139.485C230.08 140.262 230.263 141.121 230.557 141.926C230.577 141.994 230.598 142.056 230.618 142.123C230.809 142.035 231.007 141.926 231.212 141.81C231.682 141.537 232.16 141.224 232.63 140.822L232.671 140.801C232.849 141.579 233.033 142.444 233.326 143.242C234.887 148.519 237.478 154.846 240.649 160.383C242.101 162.987 243.635 165.428 245.196 167.597C240.865 172.076 236.161 175.839 231.211 178.703ZM258.858 142.888C258.79 143.038 258.715 143.181 258.64 143.331C256.601 141.817 254.304 140.412 251.937 139.124C251.426 138.838 250.901 138.565 250.376 138.299C246.578 136.608 242.706 135.374 239.371 134.658C238.642 134.488 237.913 134.365 237.258 134.283C237.36 134.038 237.448 133.8 237.531 133.554C237.217 133.479 236.903 133.411 236.597 133.342C235.874 133.172 235.144 133.049 234.49 132.968C234.995 131.699 235.288 130.486 235.363 129.265C236.161 128.884 237.04 128.42 237.913 127.957C243.483 124.95 250.731 120.307 257.767 115.063C261.046 112.629 264.285 110.038 267.306 107.577C267.306 108.382 267.347 109.159 267.347 109.957C267.347 110.338 267.34 110.727 267.333 111.116C268.267 110.366 269.181 109.623 270.081 108.894C270.081 109.698 270.115 110.475 270.115 111.273C270.115 121.998 266.836 133.78 261.409 144.648C260.597 144.046 259.745 143.46 258.858 142.888Z" fill="#D4AF37"/>
<path opacity="0.4" d="M263.358 71.2079C254.365 66.1962 242.031 67.0213 228.422 74.8759C200.89 90.7756 178.568 129.434 178.568 161.221C178.568 178.859 185.44 190.675 196.254 194.99C204.934 198.454 216.164 197.084 228.423 190.006C255.954 174.106 278.276 135.454 278.276 103.661C278.276 87.585 272.563 76.3424 263.358 71.2079ZM263.85 90.4901C261.047 93.5446 258.095 96.8852 255.143 100.397C248.877 107.801 242.795 115.853 238.384 122.358C237.654 123.408 237 124.417 236.386 125.365C235.765 124.881 234.961 124.67 234.054 124.731C234.265 123.995 234.477 123.217 234.688 122.406C234.314 122.972 233.959 123.517 233.611 124.049C232.998 123.565 232.193 123.354 231.279 123.415C231.573 122.406 231.866 121.315 232.159 120.177C234.048 113.024 235.943 103.854 237.109 95.0655C237.695 90.9815 238.132 86.945 238.459 83.2225C245.188 81.4091 251.188 82.0429 255.954 84.8182C259.015 85.9692 261.681 87.8782 263.85 90.4901ZM195.763 126.885C200.938 114.688 208.99 103.138 218.42 94.7926C218.523 95.9652 218.639 97.1518 218.775 98.3517C219.573 97.5811 220.377 96.8314 221.195 96.1083C221.482 99.4699 221.918 103.008 222.505 106.411C223.705 113.835 225.566 120.845 227.461 125.802C227.748 126.607 228.075 127.343 228.334 128.031C227.42 129.02 226.657 130.138 226.002 131.359C225.381 131.127 224.727 130.874 224.031 130.643C219.627 129.231 213.545 128.202 207.238 128.059C204.327 127.929 201.374 127.99 198.531 128.202C198.743 127.704 198.961 127.206 199.179 126.715C198.027 126.742 196.888 126.804 195.763 126.885ZM200.972 179.542C200.167 178.86 199.418 178.103 198.716 177.278C198.538 177.598 198.375 177.912 198.204 178.226C192.777 173.617 189.497 165.626 189.497 154.901C189.497 154.103 189.538 153.278 189.538 152.48C192.559 151.451 195.838 150.271 199.118 148.928C206.113 146.064 213.361 142.342 218.931 138.919C219.845 138.346 220.717 137.801 221.522 137.255C221.59 138.332 221.856 139.185 222.32 139.846C223.009 139.41 223.67 138.994 224.29 138.571C224.359 139.703 224.652 140.589 225.163 141.265C224.468 142.124 223.745 143.092 223.015 144.101C218.385 150.435 212.774 158.93 207.715 167.576C205.309 171.612 203.052 175.648 200.972 179.542ZM231.211 178.703C226.295 181.539 221.556 183.223 217.22 183.748C217.479 183.093 217.738 182.432 217.991 181.764C216.784 182.071 215.604 182.296 214.452 182.432C216.02 178.457 217.548 174.25 219.007 169.962C222.136 160.791 224.761 151.451 226.329 144.36C226.582 143.248 226.765 142.178 226.984 141.168C227.454 141.018 227.932 140.787 228.443 140.493C228.913 140.221 229.391 139.9 229.861 139.505L229.895 139.485C230.08 140.262 230.263 141.121 230.557 141.926C230.577 141.994 230.598 142.056 230.618 142.123C230.809 142.035 231.007 141.926 231.212 141.81C231.682 141.537 232.16 141.224 232.63 140.822L232.671 140.801C232.849 141.579 233.033 142.444 233.326 143.242C234.887 148.519 237.478 154.846 240.649 160.383C242.101 162.987 243.635 165.428 245.196 167.597C240.865 172.076 236.161 175.839 231.211 178.703ZM258.858 142.888C258.79 143.038 258.715 143.181 258.64 143.331C256.601 141.817 254.304 140.412 251.937 139.124C251.426 138.838 250.901 138.565 250.376 138.299C246.578 136.608 242.706 135.374 239.371 134.658C238.642 134.488 237.913 134.365 237.258 134.283C237.36 134.038 237.448 133.8 237.531 133.554C237.217 133.479 236.903 133.411 236.597 133.342C235.874 133.172 235.144 133.049 234.49 132.968C234.995 131.699 235.288 130.486 235.363 129.265C236.161 128.884 237.04 128.42 237.913 127.957C243.483 124.95 250.731 120.307 257.767 115.063C261.046 112.629 264.285 110.038 267.306 107.577C267.306 108.382 267.347 109.159 267.347 109.957C267.347 110.338 267.34 110.727 267.333 111.116C268.267 110.366 269.181 109.623 270.081 108.894C270.081 109.698 270.115 110.475 270.115 111.273C270.115 121.998 266.836 133.78 261.409 144.648C260.597 144.046 259.745 143.46 258.858 142.888Z" fill="white"/>
<path d="M263.358 71.2079C254.679 67.7444 243.449 69.1146 231.19 76.1916C203.658 92.0913 181.336 130.75 181.336 162.543C181.336 178.62 187.05 189.857 196.255 194.99C205.248 200.002 217.582 199.177 231.191 191.323C258.723 175.429 281.045 136.77 281.045 104.978C281.045 87.34 274.172 75.5243 263.358 71.2079ZM237.531 133.553C237.872 132.551 238.07 131.563 238.132 130.58C238.93 130.199 239.809 129.735 240.682 129.271C246.252 126.264 253.507 121.621 260.536 116.385C262.841 114.666 265.125 112.88 267.334 111.114C268.268 110.364 269.182 109.621 270.082 108.891C270.082 109.696 270.116 110.473 270.116 111.271C270.116 121.996 266.837 133.778 261.409 144.646C260.598 144.046 259.746 143.459 258.86 142.887C257.53 142.035 256.132 141.217 254.707 140.439C253.296 139.662 251.843 138.946 250.377 138.298C246.58 136.607 242.707 135.373 239.373 134.657C238.643 134.487 237.914 134.364 237.259 134.283C237.36 134.038 237.449 133.799 237.531 133.553ZM263.85 90.4901C261.047 93.5446 258.095 96.8852 255.143 100.397C248.877 107.801 242.795 115.853 238.384 122.358C237.654 123.408 237 124.417 236.386 125.365C235.766 124.881 234.961 124.67 234.054 124.731C234.266 123.995 234.477 123.217 234.689 122.406C234.77 122.106 234.846 121.8 234.927 121.492C236.823 114.34 238.711 105.17 239.877 96.3812C240.464 92.3042 240.9 88.2607 241.227 84.5383C246.709 83.0585 251.713 83.2086 255.954 84.8182C259.015 85.9692 261.681 87.8782 263.85 90.4901ZM231.211 141.81C231.682 141.537 232.159 141.224 232.629 140.822L232.671 140.801C232.848 141.579 233.032 142.444 233.325 143.242C234.887 148.519 237.478 154.846 240.648 160.383C242.101 162.987 243.634 165.428 245.195 167.597C240.866 172.077 236.161 175.84 231.212 178.703C226.296 181.54 221.557 183.224 217.221 183.748C217.48 183.094 217.739 182.433 217.992 181.765C219.294 178.383 220.555 174.858 221.776 171.279C224.912 162.108 227.53 152.768 229.098 145.684C229.35 144.566 229.534 143.495 229.753 142.486C230.039 142.398 230.325 142.275 230.619 142.125C230.808 142.035 231.007 141.926 231.211 141.81ZM192.265 156.217C192.265 155.419 192.307 154.594 192.307 153.796C195.327 152.766 198.607 151.587 201.886 150.244C208.881 147.38 216.129 143.657 221.699 140.234C221.911 140.105 222.115 139.976 222.32 139.846C223.009 139.409 223.67 138.993 224.29 138.57C224.359 139.703 224.652 140.588 225.163 141.264C224.468 142.123 223.745 143.091 223.015 144.1C218.385 150.434 212.774 158.93 207.715 167.575C205.308 171.612 203.052 175.647 200.972 179.541C200.167 178.859 199.417 178.102 198.715 177.277C194.645 172.512 192.265 165.353 192.265 156.217ZM221.195 96.1083C221.481 99.4699 221.917 103.008 222.504 106.411C223.704 113.835 225.566 120.845 227.461 125.802C227.747 126.607 228.074 127.343 228.333 128.031C227.42 129.02 226.656 130.138 226.001 131.359C225.381 131.127 224.726 130.874 224.031 130.643C219.626 129.231 213.545 128.202 207.238 128.059C204.326 127.929 201.374 127.99 198.531 128.202C198.742 127.704 198.96 127.206 199.178 126.715C203.897 116.119 210.762 106.104 218.774 98.3517C219.572 97.5804 220.377 96.8307 221.195 96.1083Z" fill="#D4AF37"/>
<path d="M225.163 141.265C224.468 142.124 223.744 143.092 223.015 144.101C218.385 150.435 212.774 158.93 207.715 167.576C205.308 171.612 203.052 175.648 200.971 179.542C200.167 178.86 199.417 178.103 198.715 177.278C200.651 173.678 202.737 169.969 204.947 166.26C210.006 157.615 215.617 149.119 220.247 142.785C220.969 141.776 221.699 140.808 222.395 139.949C222.367 139.915 222.347 139.881 222.32 139.847C223.009 139.411 223.67 138.995 224.29 138.572C224.359 139.703 224.652 140.59 225.163 141.265Z" fill="#D4AF37"/>
<path opacity="0.3" d="M225.163 141.265C224.468 142.124 223.744 143.092 223.015 144.101C218.385 150.435 212.774 158.93 207.715 167.576C205.308 171.612 203.052 175.648 200.971 179.542C200.167 178.86 199.417 178.103 198.715 177.278C200.651 173.678 202.737 169.969 204.947 166.26C210.006 157.615 215.617 149.119 220.247 142.785C220.969 141.776 221.699 140.808 222.395 139.949C222.367 139.915 222.347 139.881 222.32 139.847C223.009 139.411 223.67 138.995 224.29 138.572C224.359 139.703 224.652 140.59 225.163 141.265Z" fill="black"/>
<path d="M245.195 167.596C240.865 172.076 236.16 175.839 231.211 178.703C226.295 181.539 221.556 183.223 217.22 183.748C217.479 183.093 217.738 182.432 217.991 181.764C221.311 180.932 224.829 179.466 228.443 177.38C233.393 174.523 238.097 170.759 242.426 166.28C240.865 164.112 239.331 161.671 237.872 159.067C234.749 153.598 232.179 147.36 230.618 142.123C230.808 142.035 231.006 141.926 231.211 141.81C231.681 141.537 232.159 141.224 232.629 140.822L232.67 140.801C232.848 141.579 233.032 142.444 233.325 143.242C234.887 148.519 237.478 154.846 240.648 160.383C242.099 162.987 243.633 165.428 245.195 167.596Z" fill="#D4AF37"/>
<path opacity="0.2" d="M245.195 167.596C240.865 172.076 236.16 175.839 231.211 178.703C226.295 181.539 221.556 183.223 217.22 183.748C217.479 183.093 217.738 182.432 217.991 181.764C221.311 180.932 224.829 179.466 228.443 177.38C233.393 174.523 238.097 170.759 242.426 166.28" fill="black"/>
<path opacity="0.3" d="M240.647 160.382C237.477 154.846 234.886 148.518 233.324 143.241C233.031 142.444 232.847 141.578 232.67 140.801L232.629 140.821C232.158 141.223 231.681 141.537 231.21 141.809C231.006 141.925 230.808 142.034 230.617 142.123C232.178 147.359 234.748 153.598 237.871 159.066C239.33 161.67 240.864 164.111 242.426 166.28L245.194 167.595C243.633 165.428 242.099 162.987 240.647 160.382Z" fill="black"/>
<path d="M250.377 138.299C246.579 136.608 242.706 135.374 239.372 134.658C238.643 134.488 237.913 134.365 237.259 134.283C237.361 134.038 237.449 133.8 237.531 133.554C241.486 134.487 246.074 136.11 250.377 138.299Z" fill="#D4AF37"/>
<path d="M270.115 111.272C270.115 121.996 266.836 133.779 261.408 144.647C260.597 144.046 259.745 143.46 258.858 142.888C263.965 132.538 267.115 121.377 267.333 111.115C268.267 110.366 269.181 109.622 270.081 108.893C270.081 109.696 270.115 110.474 270.115 111.272Z" fill="#D4AF37"/>
<path opacity="0.3" d="M250.377 138.299C246.579 136.608 242.706 135.374 239.372 134.658C238.643 134.488 237.913 134.365 237.259 134.283C237.361 134.038 237.449 133.8 237.531 133.554C241.486 134.487 246.074 136.11 250.377 138.299Z" fill="black"/>
<path opacity="0.2" d="M270.115 111.272C270.115 121.996 266.836 133.779 261.408 144.647C260.597 144.046 259.745 143.46 258.858 142.888C263.965 132.538 267.115 121.377 267.333 111.115C268.267 110.366 269.181 109.622 270.081 108.893C270.081 109.696 270.115 110.474 270.115 111.272Z" fill="black"/>
<path d="M263.849 90.4901C261.047 93.5446 258.095 96.8852 255.143 100.397C248.877 107.801 242.795 115.853 238.384 122.358C237.654 123.408 236.999 124.417 236.386 125.365C235.765 124.881 234.961 124.67 234.054 124.731C234.265 123.995 234.477 123.217 234.688 122.406C234.989 121.963 235.295 121.506 235.615 121.042C240.027 114.538 246.108 106.485 252.374 99.0811C255.327 95.5695 258.272 92.2219 261.081 89.1744C259.595 87.3882 257.877 85.9287 255.954 84.8175C259.015 85.9692 261.681 87.8782 263.849 90.4901Z" fill="#D4AF37"/>
<path opacity="0.3" d="M263.849 90.4901C261.047 93.5446 258.095 96.8852 255.143 100.397C248.877 107.801 242.795 115.853 238.384 122.358C237.654 123.408 236.999 124.417 236.386 125.365C235.765 124.881 234.961 124.67 234.054 124.731C234.265 123.995 234.477 123.217 234.688 122.406C234.989 121.963 235.295 121.506 235.615 121.042C240.027 114.538 246.108 106.485 252.374 99.0811C255.327 95.5695 258.272 92.2219 261.081 89.1744C259.595 87.3882 257.877 85.9287 255.954 84.8175C259.015 85.9692 261.681 87.8782 263.849 90.4901Z" fill="black"/>
<path d="M228.333 128.031C227.42 129.019 226.656 130.137 226.001 131.358C225.381 131.126 224.726 130.874 224.031 130.642C219.626 129.231 213.545 128.201 207.238 128.058C204.326 127.928 201.374 127.989 198.531 128.201C198.742 127.703 198.96 127.206 199.178 126.714C200.937 126.653 202.71 126.66 204.469 126.734C210.769 126.885 216.858 127.914 221.263 129.325C221.958 129.557 222.612 129.809 223.233 130.042C223.888 128.821 224.651 127.703 225.565 126.714C225.306 126.025 224.979 125.289 224.686 124.485C222.797 119.521 220.936 112.519 219.735 105.094C219.353 102.878 219.033 100.601 218.774 98.3503C219.572 97.5797 220.377 96.83 221.195 96.1069C221.481 99.4685 221.917 103.007 222.504 106.409C223.704 113.834 225.566 120.843 227.461 125.801C227.747 126.605 228.074 127.342 228.333 128.031Z" fill="#D4AF37"/>
<path opacity="0.3" d="M225.566 126.715C224.652 127.703 223.888 128.821 223.234 130.042C222.613 129.811 221.958 129.558 221.263 129.326C216.859 127.915 210.77 126.885 204.47 126.735C202.711 126.66 200.938 126.653 199.179 126.715C198.961 127.206 198.743 127.703 198.531 128.202C201.374 127.99 204.327 127.929 207.238 128.059C213.545 128.202 219.627 129.231 224.032 130.643C224.727 130.874 225.381 131.127 226.002 131.359C226.657 130.138 227.42 129.02 228.334 128.031L225.566 126.715Z" fill="black"/>
<path opacity="0.2" d="M225.566 126.715C225.307 126.026 224.979 125.29 224.686 124.486C222.797 119.522 220.937 112.52 219.736 105.094C219.354 102.878 219.034 100.601 218.775 98.351C219.573 97.5804 220.378 96.8307 221.196 96.1076C221.482 99.4692 221.918 103.007 222.505 106.41C223.705 113.835 225.566 120.844 227.462 125.801C227.748 126.606 228.075 127.342 228.334 128.031" fill="black"/>
<path d="M185.425 273.798H179.191L180.187 279.878H180.197C180.243 280.151 180.439 280.419 180.802 280.628C181.634 281.108 182.983 281.108 183.816 280.628C184.179 280.419 184.373 280.151 184.42 279.878H184.43L185.425 273.798Z" fill="#FAFAFA"/>
<path d="M180.095 272.358C178.873 273.063 178.873 274.207 180.095 274.913C181.318 275.619 183.299 275.619 184.521 274.913C185.743 274.207 185.743 273.063 184.521 272.358C183.298 271.652 181.318 271.652 180.095 272.358Z" fill="#FAFAFA"/>
<path d="M153.72 255.355H147.487L148.483 261.435H148.493C148.539 261.708 148.734 261.975 149.097 262.185C149.929 262.665 151.279 262.665 152.111 262.185C152.474 261.975 152.669 261.708 152.716 261.435H152.725L153.72 255.355Z" fill="#FAFAFA"/>
<path d="M148.391 253.914C147.169 254.62 147.169 255.764 148.391 256.47C149.613 257.175 151.594 257.175 152.816 256.47C154.038 255.764 154.038 254.62 152.816 253.914C151.595 253.209 149.613 253.209 148.391 253.914Z" fill="#FAFAFA"/>
<path d="M275.805 228.066H269.572L270.568 234.145H270.578C270.624 234.419 270.819 234.686 271.182 234.896C272.014 235.376 273.364 235.376 274.196 234.896C274.559 234.686 274.754 234.419 274.801 234.145H274.811L275.805 228.066Z" fill="#FAFAFA"/>
<path d="M270.475 226.625C269.253 227.331 269.253 228.475 270.475 229.181C271.697 229.886 273.678 229.886 274.901 229.181C276.123 228.475 276.123 227.331 274.901 226.625C273.679 225.92 271.697 225.92 270.475 226.625Z" fill="#FAFAFA"/>
<path d="M244.101 209.623H237.867L238.863 215.702H238.873C238.919 215.976 239.115 216.243 239.478 216.453C240.31 216.933 241.659 216.933 242.492 216.453C242.855 216.243 243.049 215.976 243.096 215.702H243.106L244.101 209.623Z" fill="#FAFAFA"/>
<path d="M238.771 208.182C237.549 208.888 237.549 210.032 238.771 210.737C239.994 211.443 241.975 211.443 243.197 210.737C244.419 210.032 244.419 208.888 243.197 208.182C241.975 207.476 239.994 207.476 238.771 208.182Z" fill="#FAFAFA"/>
<path d="M280.78 196.116V225.146C280.78 227.066 279.419 229.425 277.757 230.381L275.293 231.805C275.279 231.812 275.265 231.819 275.251 231.826C274.281 232.37 272.724 232.627 271.475 232.475L196.509 274.021C196.425 275.891 195.12 278.104 193.521 279.046C193.514 279.046 193.5 279.053 193.493 279.06L191.036 280.477C190.96 280.526 190.883 280.568 190.806 280.596C190.764 280.624 190.722 280.638 190.68 280.659C190.666 280.666 190.652 280.666 190.646 280.673C189.291 281.294 187.428 281.364 185.955 280.889C185.773 280.833 185.599 280.77 185.431 280.694C185.404 280.68 185.376 280.673 185.348 280.659C185.222 280.603 185.103 280.54 184.992 280.477L145.673 257.778C144.005 256.815 142.651 254.463 142.651 252.543L142.644 203.865C142.644 201.945 144.005 199.593 145.666 198.63L232.387 148.534C234.055 147.57 236.77 147.57 238.431 148.534L240.895 149.951C242.556 150.914 244.127 153.252 244.378 155.158L246.751 172.978L277.757 190.881C279.419 191.838 280.78 194.197 280.78 196.116Z" fill="#4A8AC4"/>
<path d="M240.896 149.954L238.435 148.533C236.765 147.569 234.059 147.569 232.39 148.533L145.671 198.632C145.493 198.735 145.3 198.869 145.36 198.826C143.985 199.789 142.868 201.674 142.68 203.356C142.903 201.813 144.159 201.255 145.667 202.121C145.465 202.003 148.132 203.543 148.132 203.543C149.801 204.507 152.508 204.507 154.176 203.543L240.896 153.444C242.565 152.48 242.565 150.917 240.896 149.954Z" fill="#455A64"/>
<path d="M280.78 196.116V225.146C280.78 227.066 279.419 229.425 277.757 230.381L275.293 231.805C275.279 231.812 275.265 231.819 275.251 231.826C274.281 232.37 272.969 232.594 271.713 232.496C270.812 232.433 269.94 232.196 269.249 231.805L241.273 215.646C239.612 214.69 238.25 212.331 238.25 210.411V181.382C238.25 179.462 239.605 177.103 241.273 176.147L246.752 172.978L277.757 190.881C279.419 191.838 280.78 194.197 280.78 196.116Z" fill="black"/>
<path d="M246.753 172.98L241.27 176.146C239.607 177.106 239.607 178.676 241.27 179.636L269.249 195.79C270.911 196.749 272.271 199.105 272.271 201.025V230.058C272.271 231.978 273.631 232.763 275.293 231.803L277.754 230.382C279.417 229.422 280.777 227.066 280.777 225.147V196.114C280.777 194.194 279.417 191.838 277.754 190.879L246.753 172.98Z" fill="#455A64"/>
<path d="M272.271 201.024V230.057C272.271 231.977 273.631 232.762 275.293 231.802L277.754 230.381C279.417 229.421 280.777 227.066 280.777 225.146V196.113C280.777 195.153 280.437 194.084 279.889 193.135L271.383 198.046C271.931 198.996 272.271 200.064 272.271 201.024Z" fill="#4A8AC4"/>
<path d="M271.014 232.496C270.729 233.092 270.35 233.664 269.91 234.159C269.269 234.878 267.901 235.666 267.067 236.147C256.435 242.289 210.799 268.666 200.167 274.805C199.332 275.286 197.979 275.286 197.145 274.804L187.315 269.128L167.653 257.778C165.984 256.815 164.63 254.568 164.63 252.76C164.63 250.952 165.984 248.704 167.653 247.741L178.807 241.299L187.315 236.392L234.529 209.099C235.367 208.618 236.456 208.38 237.552 208.38C238.648 208.38 239.737 208.618 240.574 209.099L268.55 225.258C270.218 226.221 271.572 228.469 271.572 230.276C271.572 230.981 271.363 231.756 271.014 232.496Z" fill="black"/>
<path d="M200.169 268.258L270.06 227.871C270.895 227.39 271.572 227.78 271.572 228.744V231.802C271.572 232.766 270.895 233.937 270.06 234.419L200.166 274.805C199.331 275.286 198.655 274.896 198.656 273.932L198.657 270.876C198.658 269.912 199.335 268.74 200.169 268.258Z" fill="#4A8AC4"/>
<path d="M234.527 194.128L167.653 232.768C165.985 233.732 164.631 236.076 164.631 238.003L164.632 244.119C164.632 246.046 165.985 248.39 167.654 249.354L195.633 265.507C197.302 266.471 200.009 266.471 201.677 265.507L268.55 226.867C270.219 225.904 271.572 223.56 271.572 221.632V215.516C271.572 213.589 270.219 211.245 268.55 210.281L240.571 194.127C238.902 193.165 236.196 193.165 234.527 194.128Z" fill="#4A8AC4"/>
<path d="M198.658 253.131V266.233C197.562 266.233 196.466 265.988 195.636 265.507L167.653 249.355C165.984 248.392 164.63 246.046 164.63 244.12V238.005C164.63 236.198 165.824 234.027 167.346 232.966C165.991 233.936 166.096 235.36 167.653 236.26L195.636 252.412C196.473 252.894 197.562 253.131 198.658 253.131Z" fill="black"/>
<path d="M201.678 252.412L268.551 213.772C270.22 212.808 270.22 211.246 268.551 210.282L240.572 194.128C238.903 193.164 236.196 193.164 234.527 194.128L167.654 232.768C165.985 233.732 165.985 235.294 167.654 236.258L195.633 252.411C197.302 253.375 200.008 253.375 201.678 252.412Z" fill="#455A64"/>
<path d="M227.413 194.498L204.231 195.129L203.968 169.938C203.793 163.537 208.841 158.206 215.243 158.031C221.644 157.857 226.975 162.906 227.149 169.307L227.413 194.498Z" fill="black"/>
<path d="M220.981 182.619C222.63 182.432 224.989 181.336 227.413 185.863C229.836 190.39 234.539 200.099 234.539 200.099L239.196 194.814L242.774 197.704C242.774 197.704 237.408 205.833 235.87 207.365C234.649 208.583 233.192 208.738 231.608 206.727C229.745 204.362 223.868 194.814 223.868 194.814L220.981 182.619Z" fill="#FFA8A7"/>
<path d="M254.429 196.604C254.512 196.501 254.563 196.372 254.563 196.229C254.563 195.895 254.293 195.624 253.959 195.624C253.788 195.624 253.634 195.696 253.524 195.811C253.53 195.749 253.534 195.687 253.534 195.624C253.534 194.612 252.713 193.791 251.701 193.791C251.372 193.791 251.064 193.879 250.798 194.03C250.84 193.932 250.864 193.825 250.864 193.712C250.864 193.269 250.505 192.91 250.063 192.91C249.913 192.91 249.772 192.952 249.652 193.024C249.665 192.931 249.674 192.837 249.674 192.741C249.674 191.595 248.745 190.666 247.599 190.666C246.796 190.666 246.101 191.122 245.756 191.789C245.646 191.53 245.388 191.348 245.088 191.348C244.793 191.348 244.539 191.524 244.426 191.778C244.139 191.316 243.629 191.008 243.045 191.008C242.146 191.008 241.417 191.736 241.417 192.635C241.417 192.718 241.426 192.799 241.438 192.878C241.334 192.794 241.203 192.742 241.059 192.742C240.726 192.742 240.455 193.012 240.455 193.346C240.455 193.348 240.455 193.35 240.455 193.352C240.243 193.229 239.996 193.158 239.733 193.158C239.001 193.158 238.398 193.701 238.301 194.407C238.202 194.369 238.095 194.348 237.982 194.348C237.485 194.348 237.081 194.752 237.081 195.249C237.081 195.363 237.102 195.47 237.14 195.569C236.361 195.88 235.81 196.639 235.81 197.528C235.81 198.693 236.755 199.638 237.92 199.638L245.494 204.742L253.597 199.526C254.471 199.526 255.178 198.818 255.178 197.945C255.176 197.378 254.878 196.883 254.429 196.604ZM253.368 196.383C253.37 196.379 253.371 196.375 253.373 196.371C253.374 196.375 253.375 196.378 253.376 196.382C253.374 196.382 253.371 196.382 253.368 196.383Z" fill="#F5F5F5"/>
<path d="M247.443 202.502L247.178 218.26L248.827 217.308L249.368 201.39L247.443 202.502Z" fill="#FAFAFA"/>
<path d="M249.368 201.39L248.827 217.308L250.468 216.36L251.298 200.276L249.368 201.39Z" fill="#D4AF37"/>
<path d="M246.038 203.313C245.896 203.395 245.71 203.436 245.524 203.436V219.041C245.71 219.041 245.896 219 246.038 218.918L247.178 218.26L247.443 202.502L246.038 203.313Z" fill="#D4AF37"/>
<path d="M252.102 215.417L253.214 214.775C253.498 214.611 253.752 214.213 253.781 213.886L255.177 198.037L253.234 199.158L252.102 215.417Z" fill="#D4AF37"/>
<path d="M251.298 200.276L250.468 216.36L252.102 215.417L253.234 199.158L251.298 200.276Z" fill="#FAFAFA"/>
<path d="M243.604 202.502L243.87 218.26L242.221 217.308L241.679 201.39L243.604 202.502Z" fill="#D4AF37"/>
<path d="M241.679 201.39L242.221 217.308L240.579 216.36L239.749 200.276L241.679 201.39Z" fill="#E0E0E0"/>
<path d="M245.009 203.313C245.152 203.395 245.337 203.436 245.524 203.436V219.041C245.337 219.041 245.151 219 245.009 218.918L243.869 218.26L243.604 202.502L245.009 203.313Z" fill="#E0E0E0"/>
<path d="M238.945 215.417L237.833 214.775C237.549 214.611 237.295 214.213 237.266 213.886L235.87 198.037L237.813 199.158L238.945 215.417Z" fill="#E0E0E0"/>
<path d="M239.749 200.276L240.579 216.36L238.945 215.417L237.813 199.158L239.749 200.276Z" fill="#D4AF37"/>
<path opacity="0.1" d="M243.604 202.502L243.87 218.26L242.221 217.308L241.679 201.39L243.604 202.502Z" fill="#2979FF"/>
<path opacity="0.1" d="M239.749 200.276L240.579 216.36L238.945 215.417L237.813 199.158L239.749 200.276Z" fill="#2979FF"/>
<path d="M245.114 199.813C244.932 200.064 244.636 200.228 244.302 200.228C243.749 200.228 243.3 199.779 243.3 199.225C243.3 198.762 243.613 198.374 244.04 198.258C243.92 198.423 243.849 198.626 243.849 198.846C243.849 199.399 244.299 199.848 244.851 199.848C244.942 199.848 245.03 199.835 245.114 199.813Z" fill="#E0E0E0"/>
<path d="M246.291 199.878C246.312 200.079 246.241 200.287 246.08 200.433C245.813 200.675 245.4 200.655 245.159 200.387C244.956 200.164 244.937 199.839 245.092 199.597C245.106 199.729 245.161 199.858 245.257 199.964C245.499 200.231 245.912 200.251 246.179 200.009C246.223 199.969 246.26 199.925 246.291 199.878Z" fill="#E0E0E0"/>
<path d="M242.294 195.132C242.464 195.392 242.512 195.727 242.393 196.039C242.196 196.556 241.618 196.816 241.1 196.62C240.668 196.455 240.416 196.024 240.459 195.584C240.57 195.755 240.735 195.894 240.941 195.971C241.458 196.168 242.037 195.908 242.233 195.39C242.265 195.305 242.286 195.219 242.294 195.132Z" fill="#E0E0E0"/>
<path d="M240.742 196.084C240.835 196.263 240.845 196.483 240.749 196.677C240.589 196.999 240.197 197.131 239.874 196.971C239.604 196.837 239.468 196.542 239.524 196.26C239.585 196.378 239.683 196.478 239.811 196.541C240.134 196.701 240.526 196.569 240.686 196.247C240.712 196.194 240.73 196.139 240.742 196.084Z" fill="#E0E0E0"/>
<path d="M251.118 197.545C251.137 197.855 251.012 198.169 250.754 198.381C250.327 198.732 249.695 198.671 249.343 198.243C249.049 197.886 249.044 197.386 249.301 197.027C249.312 197.23 249.387 197.432 249.526 197.602C249.877 198.029 250.51 198.09 250.937 197.739C251.007 197.681 251.067 197.616 251.118 197.545Z" fill="#E0E0E0"/>
<path d="M252.203 197.072C252.225 197.273 252.154 197.481 251.993 197.627C251.725 197.869 251.313 197.849 251.071 197.581C250.869 197.358 250.85 197.034 251.005 196.791C251.019 196.923 251.074 197.052 251.17 197.158C251.412 197.426 251.824 197.445 252.092 197.204C252.136 197.164 252.173 197.119 252.203 197.072Z" fill="#E0E0E0"/>
<path d="M249.376 195.97C249.557 196.06 249.693 196.232 249.729 196.447C249.788 196.802 249.548 197.139 249.193 197.198C248.896 197.248 248.612 197.088 248.492 196.827C248.611 196.886 248.749 196.91 248.89 196.886C249.245 196.827 249.485 196.49 249.426 196.135C249.417 196.077 249.4 196.021 249.376 195.97Z" fill="#E0E0E0"/>
<path d="M238.945 193.394C238.946 193.887 239.593 194.573 239.974 194.954C240.356 195.335 241.536 195.943 241.86 196.382C242.185 196.821 242.639 196.793 242.774 196.083C242.909 195.373 241.707 194.115 241.679 193.734C241.651 193.353 243.218 193.391 244.206 193.772C245.195 194.154 246.262 195.922 246.643 196.791C247.024 197.66 249.463 197.593 249.368 195.092C249.273 192.591 248.054 191.399 246.682 190.756C245.31 190.113 243.403 189.961 241.86 190.303C240.317 190.646 238.624 191.905 237.813 194.363C238.019 194.33 238.175 194.356 238.299 194.406C238.369 193.986 238.57 193.641 238.945 193.394Z" fill="#FFA8A7"/>
<path d="M193.468 189.938C195.61 189.157 207.481 184.071 211.498 184.144L211.935 194.027L199.159 199.826L193.468 189.938Z" fill="#E0E0E0"/>
<path d="M242.823 246.281C242.418 246.705 241.954 247.198 242.006 247.731C242.058 248.264 242.33 249.549 243.449 250.761C244.568 251.972 245.303 254.281 245.51 255.848C245.717 257.416 245.859 261.414 247.847 262.987C249.834 264.56 254.655 265.348 254.657 262.433C254.659 259.517 248.902 248.306 248.902 248.306L242.823 246.281Z" fill="black"/>
<path d="M245.493 248.156C246.059 249.624 246.945 252.08 247.438 254.42C247.931 256.759 248.622 258.406 249.814 259.037C251.007 259.668 252.79 259.552 252.12 257.963C251.45 256.373 248.902 248.306 248.902 248.306L245.493 248.156Z" fill="#F28F8F"/>
<path d="M230.084 208.33C230.084 208.33 239.562 212.669 244.171 215.144C248.78 217.618 253.163 220.042 254.079 222.036C255.047 224.144 254.8 229.164 254.294 233.995C253.789 238.826 252.732 247.505 252.732 247.505L239.234 227.273L225.671 218.314L230.084 208.33Z" fill="#D4AF37"/>
<path opacity="0.1" d="M247.596 229.608C246.263 226.51 243.357 224.45 240.636 222.765C238.472 221.424 233.077 218.289 230.958 217.061C231.278 216.233 231.659 214.988 231.665 213.731C231.665 213.731 231.005 215.253 230.221 216.633L229.655 217.56L243.546 227.928L253.062 244.971C253.063 244.971 248.929 232.705 247.596 229.608Z" fill="#2979FF"/>
<path d="M253.885 262.65C253.495 262.909 253.548 263.875 253.586 264.58C253.625 265.286 253.113 266.216 254.141 267.307C255.167 268.397 256.9 268.495 258.301 269.984C259.702 271.473 261.853 274.224 265.708 274.422C269.562 274.62 272.206 272.938 272.726 271.717C273.246 270.496 272.455 269.544 269.853 268.56C267.091 267.516 266.307 267.205 266.307 267.205L253.885 262.65Z" fill="black"/>
<path d="M256.676 254.348C256.676 254.348 259.272 259.044 260.73 261.157C262.188 263.27 264.262 265.162 266.503 266.878C266.991 267.251 268.063 267.911 268.461 268.213C268.815 268.481 268.94 268.85 268.613 269.325C267.968 270.261 264.597 271.149 262.39 270.112C260.184 269.076 257.744 266.739 256.367 265.822C255.678 265.363 255.028 264.923 254.551 264.598C254.093 264.286 253.832 263.76 253.863 263.206C253.872 263.049 253.88 262.865 253.886 262.651C253.92 261.496 251.532 257.278 251.532 257.278L256.676 254.348Z" fill="#FFA8A7"/>
<path d="M209.11 213.682C209.148 217.537 209.34 219.686 211.362 223.203C213.383 226.72 218.312 228.943 224.132 230.898C228.947 232.516 236.032 234.825 237.434 235.128C238.836 235.431 239.132 236.183 239.456 238.673C239.781 241.162 241.456 244.997 245.217 249.455C249.19 254.163 252.858 259.81 252.858 259.81C252.858 259.81 256.787 259.81 258.292 257.191C258.292 257.191 247.352 231.385 245.6 228.407C243.848 225.43 229.656 217.56 229.656 217.56C229.656 217.56 229.894 212.219 230.085 208.329L209.11 213.682Z" fill="#D4AF37"/>
<path d="M211.498 184.144L208.084 185.863C208.084 185.863 210.439 188.229 209.794 194.046C209.337 198.165 208.416 198.515 206.325 199.679C209.11 206.001 209.143 215.314 209.143 215.314C209.143 215.314 214.059 217.952 223.004 215.413C230.862 213.182 230.084 208.331 230.084 208.331L226.705 205.726L225.942 199.571C225.942 199.571 228.606 196.897 227.45 192.14C226.295 187.383 220.981 182.62 220.981 182.62H218.908L211.498 184.144Z" fill="#FAFAFA"/>
<path d="M228.815 212.046C224.822 213.541 219.034 213.305 216.324 212.052C212.502 210.285 210.901 205.437 211.218 202.34C211.734 197.295 211.307 193.887 210.095 190.758H209.829C209.92 191.734 209.928 192.826 209.794 194.047C209.337 198.166 208.416 198.515 206.324 199.68C208.937 205.849 209.143 215.315 209.143 215.315C209.143 215.315 214.059 217.953 223.003 215.413C225.544 214.691 227.592 213.574 228.815 212.046Z" fill="#F0F0F0"/>
<path d="M222.527 163.03C223.771 163.72 225.368 166.758 225.394 173.217C225.416 178.691 223.68 180.092 222.8 180.506C221.921 180.92 220.197 180.729 218.52 180.497L218.55 182.764C218.55 182.764 221.56 186.057 221.455 187.567C221.351 189.076 217.604 189.859 215.405 188.447C213.206 187.035 211.303 184.254 211.303 184.254L211.141 176.666C211.141 176.666 210.184 177.647 208.479 176.236C207.071 175.071 206.552 173.056 207.594 171.938C208.637 170.821 210.626 171.063 211.428 172.594C211.428 172.594 214.093 172.62 217.586 170.575C221.078 168.53 222.349 165.157 222.527 163.03Z" fill="#FFA8A7"/>
<path d="M219.248 172.009C219.279 172.403 218.996 172.745 218.617 172.773C218.238 172.802 217.906 172.505 217.875 172.111C217.845 171.718 218.127 171.376 218.506 171.347C218.886 171.319 219.218 171.615 219.248 172.009Z" fill="black"/>
<path d="M219.558 176.641L221.17 177.108C221.05 177.568 220.591 177.838 220.146 177.709C219.701 177.581 219.438 177.103 219.558 176.641Z" fill="#F28F8F"/>
<path d="M224.832 169.742L223.413 168.815C223.656 168.411 224.171 168.291 224.563 168.547C224.955 168.803 225.075 169.338 224.832 169.742Z" fill="black"/>
<path d="M224.555 171.367C224.586 171.76 224.303 172.102 223.924 172.131C223.545 172.16 223.213 171.863 223.183 171.469C223.152 171.076 223.435 170.734 223.814 170.705C224.192 170.677 224.525 170.973 224.555 171.367Z" fill="black"/>
<path d="M221.44 170.715L221.521 175.2L223.682 174.465L221.44 170.715Z" fill="#F28F8F"/>
<path d="M218.519 180.497C216.754 180.314 213.106 179.372 212.503 177.956C212.503 177.956 212.715 178.851 213.821 179.748C214.928 180.645 218.549 181.592 218.549 181.592L218.519 180.497Z" fill="#F28F8F"/>
<path d="M218.55 182.764V181.592C218.55 181.592 221.402 181.085 222.902 181.592C223.87 181.918 225.5 182.731 226.658 183.764C227.298 184.334 228.028 186.167 228.006 187.317C227.975 188.909 226.447 189.458 224.387 188.17C223.279 187.477 222.849 186.131 222.115 185.436C220.021 184.571 218.55 182.764 218.55 182.764Z" fill="#B16668"/>
<path d="M208.084 185.863C204.978 187.291 203.094 188.211 202.082 192.857C201.071 197.503 196.997 219.625 196.997 219.625L201.827 221.17C201.827 221.17 205.38 210.19 206.384 206.507C207.388 202.823 209.36 197.307 209.794 194.047C210.217 190.866 210.576 188.527 208.084 185.863Z" fill="#FFA8A7"/>
<path d="M206.941 279.463H212.201V270.459H206.941V279.463Z" fill="#B16668"/>
<path d="M221.132 272.094L226.389 272.275L226.652 262.746L221.395 262.565L221.132 272.094Z" fill="#B16668"/>
<path d="M212.201 277.101V276.166C212.748 276.405 215.236 281.667 217.505 283.736C219.308 285.38 222.478 287.632 222.4 289.191C222.301 291.203 219.43 292.096 216.954 291.515C215.018 291.061 212.256 289.888 210.931 288.458C209.637 287.06 209.173 285.146 208.482 284.21C207.79 283.274 206.194 282.228 205.82 281.144C205.614 280.549 205.858 279.245 206.147 278.143C206.413 277.132 206.7 276.021 207.044 276.115C207.045 276.238 207.044 276.738 207.044 276.738C207.46 277.198 208.608 277.655 209.903 277.704C210.74 277.737 212.207 277.739 212.201 277.101Z" fill="black"/>
<path d="M226.445 270.653C226.718 270.663 226.94 271.047 227.543 271.7C228.271 272.488 229.898 273.312 231.074 273.899C233.044 274.885 238.199 276.209 239.931 276.989C241.014 277.477 240.742 279.157 239.208 280.103C238.064 280.807 234.42 281.489 231.176 280.764C229.408 280.368 226.719 279.143 225.403 278.935C223.962 278.708 221.311 278.432 220.236 277.69C219.161 276.95 219.591 275.367 219.895 274.008C220.227 272.524 220.701 270.253 221.193 270.354L221.177 270.821C221.809 271.779 225.028 272.17 226.417 271.465L226.445 270.653Z" fill="black"/>
<path d="M180.426 228.633C181.863 235.252 186.342 239.132 194.437 242.333C200.864 244.874 206.942 247.031 206.942 247.031C206.942 247.031 205.799 251.414 205.745 257.236C205.697 262.363 206.674 273.731 206.674 273.731C206.674 273.731 210.163 275.199 212.559 273.675C212.559 273.675 213.862 264.86 214.852 258.444C216.396 248.423 217.481 243.381 217.033 241.494C216.752 240.312 212.579 237.377 208.904 234.861L219.831 239.877C219.831 239.877 219.465 243.34 219.548 246.508C219.731 253.468 221.133 267.184 221.133 267.184C221.133 267.184 224.959 268.896 226.857 267.42C226.857 267.42 231.275 234.786 230.489 232.417C229.568 229.641 226.572 228.561 211.863 222.296C208.47 220.85 203.395 219.199 203.395 219.199L180.426 228.633Z" fill="#D4AF37"/>
<path opacity="0.1" d="M180.426 228.633C181.863 235.252 186.342 239.132 194.437 242.333C200.864 244.874 206.942 247.031 206.942 247.031C206.942 247.031 205.799 251.414 205.745 257.236C205.697 262.363 206.674 273.731 206.674 273.731C206.674 273.731 210.163 275.199 212.559 273.675C212.559 273.675 213.862 264.86 214.852 258.444C216.396 248.423 217.481 243.381 217.033 241.494C216.752 240.312 212.579 237.377 208.904 234.861L219.831 239.877C219.831 239.877 219.465 243.34 219.548 246.508C219.731 253.468 221.133 267.184 221.133 267.184C221.133 267.184 224.959 268.896 226.857 267.42C226.857 267.42 231.275 234.786 230.489 232.417C229.568 229.641 226.572 228.561 211.863 222.296C208.47 220.85 203.395 219.199 203.395 219.199L180.426 228.633Z" fill="#2979FF"/>
<path d="M180.891 192.296C180.891 192.296 178.433 195.936 178.433 200.771L177.469 211.049C177.932 219.372 178.373 222.746 179.817 228.707C183.553 232.772 199.249 228.062 203.394 219.199C203.394 219.199 201.401 207.587 201.018 199.671C200.746 194.043 198.854 190.058 193.468 189.938L186.551 190.888L180.891 192.296Z" fill="#F5F5F5"/>
<path d="M201.13 179.887C204.084 176.933 204.084 172.143 201.13 169.189C198.176 166.235 193.386 166.235 190.432 169.189C187.478 172.143 187.478 176.933 190.432 179.887C193.386 182.841 198.176 182.841 201.13 179.887Z" fill="black"/>
<path d="M183.408 179.054C183.408 179.054 184.568 184.505 185.034 185.401C185.499 186.296 186.46 186.551 186.46 186.551L186.379 182.717L183.408 179.054Z" fill="black"/>
<path d="M184.864 171.246C184.864 171.246 183.615 171.032 182.64 172.028C181.685 173.004 182.219 176.061 183.408 179.054L185.593 179.306L184.864 171.246Z" fill="black"/>
<path d="M186.249 179.307C185.811 179.569 185.186 178.727 184.645 178.162C184.105 177.596 182.34 176.824 181.461 178.678C180.564 180.568 182.238 183.065 183.627 183.501C186.02 184.252 186.379 182.717 186.379 182.717L186.562 191.35C188.625 193.655 195.68 193.105 194.349 191.122L194.342 188.495C194.342 188.495 196.511 188.824 197.569 188.66C199.329 188.388 200.436 186.999 200.97 185.094C201.828 182.034 202.154 179.563 201.426 173.544C200.629 166.948 192.956 166.879 188.813 169.487C184.669 172.094 186.249 179.307 186.249 179.307Z" fill="#B16668"/>
<path d="M186.249 180.044C186.028 180.048 185.191 178.658 184.645 178.162C183.889 177.474 184.864 171.246 184.864 171.246C184.864 171.246 184.138 169.698 185.594 168.096C186.629 166.956 188.359 166.83 191.314 166.366C192.864 166.122 195.213 165.688 196.762 165.4C198.61 165.057 200.14 164.692 201.445 165.827C202.461 166.709 202.898 168.269 202.351 169.499C202.223 169.787 202.037 170.047 201.826 170.283C201.452 170.699 201.028 171.026 200.496 171.199C200.496 171.199 199.69 171.914 196.886 172.256C194.082 172.598 189.715 172.19 189.118 172.109C188.305 171.998 188.131 172.786 187.693 174.938C187.308 176.827 186.99 180.03 186.249 180.044Z" fill="black"/>
<path d="M184.868 171.73L182.219 170.308C182.595 169.548 183.493 169.252 184.224 169.645C184.956 170.038 185.245 170.972 184.868 171.73Z" fill="black"/>
<path d="M194.342 188.494C194.342 188.494 190.413 187.703 189.04 186.973C188.12 186.484 187.363 185.637 187.14 185.094C187.14 185.094 187.398 186.259 188.219 187.31C189.224 188.594 194.342 189.54 194.342 189.54V188.494Z" fill="#9A4A4D"/>
<path d="M193.398 178.325C193.398 178.777 193.045 179.142 192.61 179.141C192.176 179.14 191.823 178.772 191.823 178.321C191.823 177.869 192.176 177.503 192.61 177.505C193.045 177.506 193.398 177.873 193.398 178.325Z" fill="black"/>
<path d="M192.134 175.065L190.449 175.994C190.201 175.511 190.377 174.91 190.842 174.654C191.307 174.397 191.885 174.581 192.134 175.065Z" fill="black"/>
<path d="M193.986 183.764L195.784 184.438C195.606 184.953 195.059 185.22 194.563 185.034C194.066 184.848 193.808 184.279 193.986 183.764Z" fill="#9A4A4D"/>
<path d="M200.621 175.758L199.084 174.575C199.398 174.135 199.995 174.043 200.42 174.37C200.845 174.697 200.934 175.318 200.621 175.758Z" fill="black"/>
<path d="M199.947 178.101C199.947 178.553 199.594 178.918 199.159 178.917C198.724 178.916 198.372 178.548 198.372 178.097C198.372 177.645 198.724 177.279 199.159 177.281C199.594 177.282 199.947 177.649 199.947 178.101Z" fill="black"/>
<path d="M196.055 177.469L196.147 182.244L198.969 181.622L196.055 177.469Z" fill="#9A4A4D"/>
<path opacity="0.15" d="M208.903 234.86L202.588 231.474C202.588 231.474 205.165 229.618 205.504 227.205C205.504 227.205 205.657 230.175 204.543 231.474L218.24 239.146L208.903 234.86Z" fill="#2979FF"/>
<path d="M188.013 278.735V249.702C188.013 247.782 186.652 245.427 184.99 244.467L153.989 226.568L151.614 208.747C151.361 206.844 149.793 204.502 148.131 203.542L145.67 202.121C144.007 201.161 142.647 201.947 142.647 203.866V252.543C142.647 254.463 144.008 256.819 145.67 257.778L184.99 280.48C186.653 281.44 188.013 280.655 188.013 278.735Z" fill="black"/>
<path d="M196.516 244.789V273.825C196.516 273.888 196.516 273.958 196.509 274.021C196.425 275.891 195.12 278.104 193.521 279.046C193.514 279.046 193.5 279.053 193.493 279.06L191.036 280.477C190.96 280.526 190.883 280.568 190.806 280.596C190.764 280.624 190.722 280.638 190.68 280.659C190.666 280.666 190.653 280.666 190.646 280.673C190.562 280.708 190.478 280.743 190.401 280.764C189.075 281.287 187.344 281.329 185.955 280.889C185.774 280.833 185.599 280.771 185.431 280.694C186.883 281.294 188.007 280.477 188.014 278.739C188.014 278.739 188.014 278.739 188.014 278.732V249.703C188.014 247.783 186.653 245.424 184.992 244.468L179.505 241.299L153.987 226.571L159.473 223.402C161.134 222.446 163.856 222.446 165.518 223.402L188.014 236.392L193.493 239.554C195.162 240.517 196.516 242.869 196.516 244.789Z" fill="#455A64"/>
<path d="M188.014 249.703V278.732C188.014 278.739 188.014 278.739 188.014 278.739C188.007 280.477 186.883 281.294 185.431 280.694C185.599 280.771 185.773 280.833 185.955 280.889C187.344 281.329 189.075 281.287 190.401 280.764C190.478 280.743 190.562 280.708 190.645 280.673C190.652 280.666 190.666 280.666 190.68 280.659C190.722 280.638 190.764 280.624 190.806 280.596C190.883 280.568 190.96 280.526 191.036 280.477L193.493 279.06C193.5 279.053 193.514 279.046 193.521 279.046C195.12 278.104 196.425 275.891 196.509 274.021C196.516 273.958 196.516 273.888 196.516 273.825V244.789C196.516 243.829 196.177 242.762 195.631 241.813L187.125 246.723C187.674 247.673 188.014 248.743 188.014 249.703Z" fill="#4A8AC4"/>
<path d="M178.615 194.814C176.416 195.594 170.089 209.013 168.721 211.643C167.354 214.273 163.735 222.372 164.44 225.633C165.145 228.894 179.046 235.795 180.425 237.176C182.077 238.831 182.533 239.637 184.994 239.896C187.023 240.11 187.609 241.695 189.548 242.537C191.488 243.379 194.868 241.911 193.369 239.147C191.599 235.881 190.146 235.164 188.533 234.499C186.294 233.577 184.944 233.502 183.407 232.555C181.869 231.609 172.887 223.081 172.887 223.081L177.47 214.155C177.47 214.155 180.268 207.506 180.49 202.421C180.714 197.336 178.615 194.814 178.615 194.814Z" fill="#B16668"/>
<path d="M180.891 192.296C176.691 193.821 174.54 198.02 172.168 202.768C169.796 207.517 167.644 212.616 167.644 212.616C167.644 212.616 170.982 216.358 176.276 217.412L180.772 208.834C180.772 208.834 185.593 199.449 180.891 192.296Z" fill="#E0E0E0"/>
</svg>
